<?xml version="1.0" encoding="UTF-8"?>
<svg version="1.1" xmlns="http://www.w3.org/2000/svg" width="500" height="200">
<path d="M0 0 C3.74397106 1.49450697 3.74397106 1.49450697 4.9140625 3.8046875 C5.14867187 4.48789063 5.38328125 5.17109375 5.625 5.875 C7.3483828 9.60786077 9.05670523 10.96585919 12.8125 12.625 C17.54298449 14.22961368 20.28322488 13.72343706 25 12 C28.4375 12.375 28.4375 12.375 31 13 C31.495 15.475 31.495 15.475 32 18 C25.71428571 23.57142857 25.71428571 23.57142857 22 24 C22 24.66 22 25.32 22 26 C22.94875 25.814375 23.8975 25.62875 24.875 25.4375 C28 25 28 25 30 26 C29.875 27.8125 29.875 27.8125 29 30 C27 31 25 32 23 33 C21.26509754 35.58443323 21.26509754 35.58443323 20 38 C19.34 38 18.68 38 18 38 C17.34 36.02 16.68 34.04 16 32 C10.34144868 30.73476156 10.34144868 30.73476156 4.75390625 31.9140625 C1.21783511 33.30842814 -2.32098741 33.86058489 -6.0625 34.375 C-6.76955078 34.49488281 -7.47660156 34.61476562 -8.20507812 34.73828125 C-10.28515625 35.0234375 -10.28515625 35.0234375 -14 35 C-16.49609375 33.0390625 -16.49609375 33.0390625 -18 31 C-15.95006641 27.00802406 -14.1524409 24.82302283 -10 23 C-7.6875 23.3125 -7.6875 23.3125 -6 24 C-8.54456151 21.03134491 -11.48994665 19.6380249 -15 18 C-14.67 15.36 -14.34 12.72 -14 10 C-10.90645403 9.00564594 -9.09720845 9.12159004 -6 10 C-5.65066406 9.36191406 -5.30132812 8.72382812 -4.94140625 8.06640625 C-4.48636719 7.24011719 -4.03132812 6.41382812 -3.5625 5.5625 C-2.88380859 4.32693359 -2.88380859 4.32693359 -2.19140625 3.06640625 C-1 1 -1 1 0 0 Z M11.75 20 C10.85796875 20.37125 9.9659375 20.7425 9.046875 21.125 C8.37140625 21.41375 7.6959375 21.7025 7 22 C7 22.99 7 23.98 7 25 C8.96231815 24.40890417 10.9197805 23.80166895 12.875 23.1875 C13.96554688 22.85105469 15.05609375 22.51460937 16.1796875 22.16796875 C19.27298725 21.19339495 19.27298725 21.19339495 21 18 C17.09224671 18 15.26345037 18.52065248 11.75 20 Z M-5 26 C-5 26.99 -5 27.98 -5 29 C-4.34 28.67 -3.68 28.34 -3 28 C-3 27.34 -3 26.68 -3 26 C-3.66 26 -4.32 26 -5 26 Z " fill="#3AA3E8" transform="translate(149,90)"/>
<path d="M0 0 C1.32 0.66 2.64 1.32 4 2 C4 2.99 4 3.98 4 5 C4.66 5 5.32 5 6 5 C6.33 5.99 6.66 6.98 7 8 C8.8653245 9.01754868 8.8653245 9.01754868 11.0625 9.6875 C11.79597656 9.93886719 12.52945313 10.19023438 13.28515625 10.44921875 C13.85105469 10.63097656 14.41695312 10.81273438 15 11 C15 11.99 15 12.98 15 14 C13.35 14.33 11.7 14.66 10 15 C9.67 15.99 9.34 16.98 9 18 C8.34 18.33 7.68 18.66 7 19 C6.34786708 21.02463255 6.34786708 21.02463255 6 23 C3.69 23.33 1.38 23.66 -1 24 C-4 18.375 -4 18.375 -4 15 C-6.64 14.67 -9.28 14.34 -12 14 C-12 12.68 -12 11.36 -12 10 C-10.906875 9.608125 -9.81375 9.21625 -8.6875 8.8125 C-5.04877046 7.28658116 -3.81300048 5.53057988 -2 2 C-1.34 2 -0.68 2 0 2 C0 1.34 0 0.68 0 0 Z " fill="#209EF8" transform="translate(149,94)"/>
<path d="M0 0 C1.32 0 2.64 0 4 0 C5.5026392 3.97817511 7.00166952 7.95770027 8.5 11.9375 C8.92925781 13.07380859 9.35851562 14.21011719 9.80078125 15.38085938 C10.40986328 17.00024414 10.40986328 17.00024414 11.03125 18.65234375 C11.40830078 19.65257568 11.78535156 20.65280762 12.17382812 21.68334961 C13 24 13 24 13 25 C11.35 25 9.7 25 8 25 C7.67 23.02 7.34 21.04 7 19 C3.7 19 0.4 19 -3 19 C-3.66 20.98 -4.32 22.96 -5 25 C-6.32 25 -7.64 25 -9 25 C-2.67202572 2.67202572 -2.67202572 2.67202572 0 0 Z M1 7 C0.34 9.64 -0.32 12.28 -1 15 C0.98 15 2.96 15 5 15 C4.01 12.36 3.02 9.72 2 7 C1.67 7 1.34 7 1 7 Z " fill="#1F9CF1" transform="translate(346,94)"/>
<path d="M0 0 C2.35035128 2.57179765 2.23723407 4.55199746 2.17578125 7.94726562 C2.14226562 8.68525391 2.10875 9.42324219 2.07421875 10.18359375 C2.05617188 10.93318359 2.038125 11.68277344 2.01953125 12.45507812 C1.97245984 14.30263085 1.90071641 16.14952534 1.82421875 17.99609375 C-0.11083148 18.24510021 -2.04904059 18.46965617 -3.98828125 18.68359375 C-5.06722656 18.81121094 -6.14617187 18.93882813 -7.2578125 19.0703125 C-10.17578125 18.99609375 -10.17578125 18.99609375 -12.03515625 17.703125 C-13.81440335 15.04034767 -13.6293824 13.10650161 -13.17578125 9.99609375 C-10.34325109 6.83673318 -7.27881283 6.46234734 -3.17578125 5.99609375 C-3.17578125 5.33609375 -3.17578125 4.67609375 -3.17578125 3.99609375 C-6.37480764 3.90723191 -9.10255581 4.08550844 -12.17578125 4.99609375 C-12.50578125 4.33609375 -12.83578125 3.67609375 -13.17578125 2.99609375 C-10.04857785 -1.69471135 -5.10299441 -2.35452346 0 0 Z M-9.17578125 10.99609375 C-9.50578125 11.98609375 -9.83578125 12.97609375 -10.17578125 13.99609375 C-9.12267848 15.26612698 -9.12267848 15.26612698 -6.73828125 15.18359375 C-4.0084345 15.26449358 -4.0084345 15.26449358 -2.17578125 12.99609375 C-2.17578125 12.00609375 -2.17578125 11.01609375 -2.17578125 9.99609375 C-6.07037199 9.78527524 -6.07037199 9.78527524 -9.17578125 10.99609375 Z " fill="#369AE4" transform="translate(301.17578125,101.00390625)"/>
<path d="M0 0 C1.89355469 0.26147461 1.89355469 0.26147461 4 1 C5.00488281 2.67407227 5.00488281 2.67407227 5.703125 4.81640625 C5.93676758 5.50420166 6.17041016 6.19199707 6.41113281 6.90063477 C6.68795898 7.77905029 6.96478516 8.65746582 7.25 9.5625 C8.1575 12.346875 9.065 15.13125 10 18 C12.31 12.06 14.62 6.12 17 0 C18.32 0 19.64 0 21 0 C19.43889635 8.74218041 16.21518143 16.75983375 13 25 C11.35 25 9.7 25 8 25 C6.65574747 21.58752916 5.32652831 18.16939561 4 14.75 C3.6184375 13.78191406 3.236875 12.81382813 2.84375 11.81640625 C2.4828125 10.88183594 2.121875 9.94726562 1.75 8.984375 C1.41484375 8.12553711 1.0796875 7.26669922 0.734375 6.38183594 C0 4 0 4 0 0 Z " fill="#3699DE" transform="translate(192,94)"/>
<path d="M0 0 C3.16347801 2.39018338 4.69502812 4.12320584 6 7.875 C6 11.93344247 4.96854587 14.47019361 3 18 C0.3464751 20.27444992 -1.02306903 19.99878584 -4.5625 19.8125 C-9.10367893 18.73913043 -9.10367893 18.73913043 -11 16 C-12.20190901 12.39427296 -12.32670315 9.7897565 -12 6 C-8.63646389 0.84257796 -6.18392951 -0.72752112 0 0 Z M-6 4 C-8.31332486 7.46998729 -8.33957563 8.92509248 -8 13 C-7.01 14.485 -7.01 14.485 -6 16 C-3.54290625 16.58350505 -3.54290625 16.58350505 -1 16 C1.02896212 14.46186579 1.02896212 14.46186579 2 12 C1.77962372 8.32706204 1.63033454 6.63033454 -1 4 C-3.5 3.58333333 -3.5 3.58333333 -6 4 Z " fill="#2E99E3" transform="translate(260,100)"/>
<path d="M0 0 C1.859375 0.15234375 1.859375 0.15234375 4 1 C5.78939376 4.54012777 6.78028962 8.21018561 8 12 C9.65 8.04 11.3 4.08 13 0 C14.32 0.33 15.64 0.66 17 1 C15.90516059 4.2324044 14.79748862 7.46026951 13.6875 10.6875 C13.37876953 11.59951172 13.07003906 12.51152344 12.75195312 13.45117188 C9.6147087 22.5326689 9.6147087 22.5326689 7 26 C4.3125 26.8125 4.3125 26.8125 2 27 C1.67 25.68 1.34 24.36 1 23 C2.32 22.34 3.64 21.68 5 21 C4.44263176 15.84434381 2.72426452 11.37410985 0.83984375 6.5859375 C0 4 0 4 0 0 Z " fill="#3698DD" transform="translate(319,100)"/>
<path d="M0 0 C1.9375 1.3125 1.9375 1.3125 3 3 C3 3.99 3 4.98 3 6 C0.03 5.67 -2.94 5.34 -6 5 C-5.20808982 7.16237878 -5.20808982 7.16237878 -3.1875 7.640625 C-2.465625 7.84171875 -1.74375 8.0428125 -1 8.25 C1.1796875 9.015625 1.1796875 9.015625 3 10 C4.125 13 4.125 13 4 16 C2 19 2 19 -0.0234375 19.6171875 C-6.36050454 20.311949 -6.36050454 20.311949 -9.5625 18.75 C-11 17 -11 17 -11 14 C-7.7 14.33 -4.4 14.66 -1 15 C-1 14.34 -1 13.68 -1 13 C-1.83144531 12.76216797 -1.83144531 12.76216797 -2.6796875 12.51953125 C-8.58912387 10.6163142 -8.58912387 10.6163142 -10.625 7.5625 C-11.06308674 4.56890726 -10.74295015 3.4401302 -9 1 C-5.95016004 -0.52491998 -3.3576631 -0.23562548 0 0 Z " fill="#2D9BE5" transform="translate(234,100)"/>
<path d="M0 0 C10.15036045 -0.36251287 10.15036045 -0.36251287 13.34375 1 C15.90954446 4.09831784 15.42356475 7.3657377 15.25 11.1875 C15.23195313 11.93708984 15.21390625 12.68667969 15.1953125 13.45898438 C15.14824109 15.3065371 15.07649766 17.15343159 15 19 C14.01 19 13.02 19 12 19 C11.93941406 18.15695313 11.87882812 17.31390625 11.81640625 16.4453125 C11.73261719 15.34960938 11.64882813 14.25390625 11.5625 13.125 C11.48128906 12.03445312 11.40007812 10.94390625 11.31640625 9.8203125 C11.16998297 7.05271029 11.16998297 7.05271029 10 5 C8.35 4.67 6.7 4.34 5 4 C4.67 8.95 4.34 13.9 4 19 C2.68 19 1.36 19 0 19 C0 12.73 0 6.46 0 0 Z " fill="#399ADD" transform="translate(269,100)"/>
<path d="M0 0 C0.99 0 1.98 0 3 0 C3.66 1.32 4.32 2.64 5 4 C6.32 3.67 7.64 3.34 9 3 C9.99 4.65 10.98 6.3 12 8 C10.1875 10 10.1875 10 8 12 C7.01 12 6.02 12 5 12 C3.28288757 14.44496043 3.28288757 14.44496043 2 17 C0.62437146 15.71034824 -0.70766393 14.37310707 -2 13 C-2 12.34 -2 11.68 -2 11 C-3.65 10.67 -5.3 10.34 -7 10 C-6.75 8.125 -6.75 8.125 -6 6 C-4.67532254 5.3162955 -3.34136367 4.65035814 -2 4 C-0.73195434 1.9664052 -0.73195434 1.9664052 0 0 Z " fill="#1597F2" transform="translate(167,85)"/>
<path d="M0 0 C0.70125 0.38414063 1.4025 0.76828125 2.125 1.1640625 C8.43708671 4.60497096 8.43708671 4.60497096 15.3125 4.25 C16.529375 3.8375 17.74625 3.425 19 3 C22.5 3.375 22.5 3.375 25 4 C25.33 5.65 25.66 7.3 26 9 C19.71428571 14.57142857 19.71428571 14.57142857 16 15 C16 15.66 16 16.32 16 17 C16.66 17.33 17.32 17.66 18 18 C16.68 17.67 15.36 17.34 14 17 C14 16.01 14 15.02 14 14 C14.99 14 15.98 14 17 14 C17 13.34 17 12.68 17 12 C17.99 12 18.98 12 20 12 C20 11.34 20 10.68 20 10 C20.99 10 21.98 10 23 10 C22.34 9.34 21.68 8.68 21 8 C18.81095889 8.12856496 18.81095889 8.12856496 16.375 8.75 C15.488125 8.94851562 14.60125 9.14703125 13.6875 9.3515625 C12.800625 9.56554687 11.91375 9.77953125 11 10 C10.195625 10.19335938 9.39125 10.38671875 8.5625 10.5859375 C6.70493005 11.04369581 4.85191463 11.51987399 3 12 C3.33 11.01 3.66 10.02 4 9 C5.65 9 7.3 9 9 9 C9 8.01 9 7.02 9 6 C6.03 5.01 3.06 4.02 0 3 C0 2.01 0 1.02 0 0 Z " fill="#4990C1" transform="translate(155,99)"/>
<path d="M0 0 C0.99 0 1.98 0 3 0 C3.84757725 4.40605632 4.13475983 8.57785895 4.125 13.0625 C4.12757813 14.24972656 4.13015625 15.43695313 4.1328125 16.66015625 C4.01692665 19.57434445 3.67386177 22.17085017 3 25 C1.68 25 0.36 25 -1 25 C-1.02886984 21.02084841 -1.04675406 17.04172347 -1.0625 13.0625 C-1.07087891 11.92619141 -1.07925781 10.78988281 -1.08789062 9.61914062 C-1.09111328 8.53955078 -1.09433594 7.45996094 -1.09765625 6.34765625 C-1.10289307 5.34742432 -1.10812988 4.34719238 -1.11352539 3.31665039 C-1 1 -1 1 0 0 Z " fill="#1DAEF5" transform="translate(362,94)"/>
<path d="M0 0 C-0.61875 0.2475 -1.2375 0.495 -1.875 0.75 C-4.35068687 2.20628639 -4.95125002 3.37812506 -6 6 C-7.98 6 -9.96 6 -12 6 C-12 6.66 -12 7.32 -12 8 C-5.77991225 7.61620735 -0.22265997 6.65873708 5.67578125 4.62109375 C8.20570025 3.94503136 10.39297034 3.89387313 13 4 C7.89761935 7.4015871 2.96133475 8.54679174 -3.0625 9.375 C-3.76955078 9.49488281 -4.47660156 9.61476563 -5.20507812 9.73828125 C-7.28515625 10.0234375 -7.28515625 10.0234375 -11 10 C-13.49609375 8.0390625 -13.49609375 8.0390625 -15 6 C-11.23498514 -1.33187104 -7.78417664 -2.89998738 0 0 Z " fill="#579DD5" transform="translate(146,115)"/>
<path d="M0 0 C0.66 0.99 1.32 1.98 2 3 C4.80561762 3.28056176 6.46578263 3.26710868 9 2 C9.66 2.33 10.32 2.66 11 3 C10.875 4.8125 10.875 4.8125 10 7 C8 8 6 9 4 10 C2.26509754 12.58443323 2.26509754 12.58443323 1 15 C0.34 15 -0.32 15 -1 15 C-1.45375 13.88625 -1.9075 12.7725 -2.375 11.625 C-3.72465986 8.03800992 -3.72465986 8.03800992 -6 6 C-5.01 5.67 -4.02 5.34 -3 5 C-1.8499169 3.03327085 -1.8499169 3.03327085 -1 1 C-0.67 0.67 -0.34 0.34 0 0 Z " fill="#1C97F1" transform="translate(168,113)"/>
<path d="M0 0 C1.23556641 0.01740234 1.23556641 0.01740234 2.49609375 0.03515625 C3.32238281 0.04417969 4.14867187 0.05320312 5 0.0625 C5.63808594 0.07410156 6.27617187 0.08570312 6.93359375 0.09765625 C6.93359375 1.41765625 6.93359375 2.73765625 6.93359375 4.09765625 C5.28359375 4.75765625 3.63359375 5.41765625 1.93359375 6.09765625 C1.60359375 10.38765625 1.27359375 14.67765625 0.93359375 19.09765625 C-0.38640625 19.09765625 -1.70640625 19.09765625 -3.06640625 19.09765625 C-3.09324612 16.11843032 -3.11316662 13.1394433 -3.12890625 10.16015625 C-3.13728516 9.31001953 -3.14566406 8.45988281 -3.15429688 7.58398438 C-3.15751953 6.77509766 -3.16074219 5.96621094 -3.1640625 5.1328125 C-3.16929932 4.38394775 -3.17453613 3.63508301 -3.17993164 2.86352539 C-3.01250827 0.25928194 -2.59628016 0.12269755 0 0 Z " fill="#3699DE" transform="translate(310.06640625,99.90234375)"/>
<path d="M0 0 C2.4932534 0.99730136 3.77467439 1.65074531 5.25 3.9375 C6 6 6 6 6 9 C5.34 9 4.68 9 4 9 C3.71125 8.360625 3.4225 7.72125 3.125 7.0625 C2.17176549 4.84793921 2.17176549 4.84793921 0 4 C0 4.66 0 5.32 0 6 C-0.66 6 -1.32 6 -2 6 C-2.1546875 6.8971875 -2.1546875 6.8971875 -2.3125 7.8125 C-3.13380325 10.42573762 -3.82068885 11.34672947 -6 13 C-9.1875 14.1875 -9.1875 14.1875 -12 15 C-11.67 16.32 -11.34 17.64 -11 19 C-12.32 18.67 -13.64 18.34 -15 18 C-14.67 15.36 -14.34 12.72 -14 10 C-10.90645403 9.00564594 -9.09720845 9.12159004 -6 10 C-5.65066406 9.36191406 -5.30132812 8.72382812 -4.94140625 8.06640625 C-4.48636719 7.24011719 -4.03132812 6.41382812 -3.5625 5.5625 C-2.88380859 4.32693359 -2.88380859 4.32693359 -2.19140625 3.06640625 C-1 1 -1 1 0 0 Z " fill="#3F9FDE" transform="translate(149,90)"/>
<path d="M0 0 C1.32 0.33 2.64 0.66 4 1 C3.24023472 3.44145917 2.46782596 5.8776147 1.6875 8.3125 C1.47416016 9.00279297 1.26082031 9.69308594 1.04101562 10.40429688 C-1.07978969 16.95663568 -1.07978969 16.95663568 -4 19 C-4.66 19 -5.32 19 -6 19 C-6.33 17.02 -6.66 15.04 -7 13 C-6.01 13 -5.02 13 -4 13 C-3.87882812 12.39671875 -3.75765625 11.7934375 -3.6328125 11.171875 C-3.46523438 10.37265625 -3.29765625 9.5734375 -3.125 8.75 C-2.96257812 7.96109375 -2.80015625 7.1721875 -2.6328125 6.359375 C-2.00849925 4.03168856 -1.15161458 2.10968048 0 0 Z " fill="#3B9CE9" transform="translate(332,100)"/>
<path d="M0 0 C1.37478516 0.01740234 1.37478516 0.01740234 2.77734375 0.03515625 C3.69644531 0.04417969 4.61554688 0.05320312 5.5625 0.0625 C6.27277344 0.07410156 6.98304688 0.08570312 7.71484375 0.09765625 C7.33984375 2.03515625 7.33984375 2.03515625 6.71484375 4.09765625 C5.72484375 4.59265625 5.72484375 4.59265625 4.71484375 5.09765625 C4.06271083 7.1222888 4.06271083 7.1222888 3.71484375 9.09765625 C1.40484375 9.42765625 -0.90515625 9.75765625 -3.28515625 10.09765625 C-3.94515625 8.44765625 -4.60515625 6.79765625 -5.28515625 5.09765625 C-3.96515625 4.76765625 -2.64515625 4.43765625 -1.28515625 4.09765625 C-1.28515625 3.43765625 -1.28515625 2.77765625 -1.28515625 2.09765625 C-1.94515625 1.76765625 -2.60515625 1.43765625 -3.28515625 1.09765625 C-2.28515625 0.09765625 -2.28515625 0.09765625 0 0 Z " fill="#2594E3" transform="translate(151.28515625,107.90234375)"/>
<path d="M0 0 C1.32 0 2.64 0 4 0 C4 6.27 4 12.54 4 19 C2.68 19 1.36 19 0 19 C0 12.73 0 6.46 0 0 Z " fill="#3999DB" transform="translate(241,100)"/>
<path d="M0 0 C1.32 0.33 2.64 0.66 4 1 C4 6.94 4 12.88 4 19 C2.68 19 1.36 19 0 19 C0 12.73 0 6.46 0 0 Z " fill="#319AE3" transform="translate(216,100)"/>
<path d="M0 0 C1.0828125 0.37125 1.0828125 0.37125 2.1875 0.75 C2.1875 1.41 2.1875 2.07 2.1875 2.75 C1.1975 2.75 0.2075 2.75 -0.8125 2.75 C-0.8125 3.41 -0.8125 4.07 -0.8125 4.75 C-1.8025 4.75 -2.7925 4.75 -3.8125 4.75 C-3.8125 5.41 -3.8125 6.07 -3.8125 6.75 C-5.55239714 7.50295549 -7.30497291 8.22666771 -9.0625 8.9375 C-10.03703125 9.34355469 -11.0115625 9.74960938 -12.015625 10.16796875 C-14.8125 10.75 -14.8125 10.75 -17.171875 9.36328125 C-17.71328125 8.83089844 -18.2546875 8.29851562 -18.8125 7.75 C-18.07644531 7.50765625 -17.34039062 7.2653125 -16.58203125 7.015625 C-10.38993061 4.93381754 -10.38993061 4.93381754 -4.9375 1.4375 C-2.8125 -0.25 -2.8125 -0.25 0 0 Z " fill="#5DABE3" transform="translate(175.8125,106.25)"/>
<path d="M0 0 C1.53271273 4.58798777 0.02911182 6.77944742 -2 11 C-1.236875 10.484375 -0.47375 9.96875 0.3125 9.4375 C1.199375 8.963125 2.08625 8.48875 3 8 C3.99 8.33 4.98 8.66 6 9 C5.67 9.33 5.34 9.66 5 10 C6.32 10.66 7.64 11.32 9 12 C6.03 12 3.06 12 0 12 C-0.66 13.98 -1.32 15.96 -2 18 C-3.32 18 -4.64 18 -6 18 C-4.23536928 11.89262558 -2.30442525 5.92566493 0 0 Z " fill="#3599DD" transform="translate(343,101)"/>
<path d="M0 0 C0.99 0 1.98 0 3 0 C4.77152762 4.99248693 3.17748774 9.38579978 1 14 C-0.484375 15.7734375 -0.484375 15.7734375 -2 17 C-2.66 17 -3.32 17 -4 17 C-3.690625 15.989375 -3.38125 14.97875 -3.0625 13.9375 C-2.02209625 10.32539402 -1.50154202 6.72574075 -1 3 C-0.67 2.01 -0.34 1.02 0 0 Z " fill="#299FF0" transform="translate(345,95)"/>
<path d="M0 0 C1.65 0.33 3.3 0.66 5 1 C5.33 2.65 5.66 4.3 6 6 C-0.28571429 11.57142857 -0.28571429 11.57142857 -4 12 C-4 12.66 -4 13.32 -4 14 C-3.34 14.33 -2.68 14.66 -2 15 C-3.32 14.67 -4.64 14.34 -6 14 C-6 13.01 -6 12.02 -6 11 C-5.01 11 -4.02 11 -3 11 C-3 10.34 -3 9.68 -3 9 C-2.01 9 -1.02 9 0 9 C0 8.34 0 7.68 0 7 C0.99 7 1.98 7 3 7 C2.34 6.34 1.68 5.68 1 5 C0.67 5 0.34 5 0 5 C0 3.35 0 1.7 0 0 Z " fill="#4E97C9" transform="translate(175,102)"/>
<path d="M0 0 C0.99 0 1.98 0 3 0 C3.33 1.32 3.66 2.64 4 4 C2.68 3.34 1.36 2.68 0 2 C-1.36884358 6.51718381 -0.47075246 9.58774263 1 14 C1.66 14 2.32 14 3 14 C2.67 14.99 2.34 15.98 2 17 C0.62437146 15.71034824 -0.70766393 14.37310707 -2 13 C-2 12.34 -2 11.68 -2 11 C-3.65 10.67 -5.3 10.34 -7 10 C-6.75 8.125 -6.75 8.125 -6 6 C-4.67532254 5.3162955 -3.34136367 4.65035814 -2 4 C-0.73195434 1.9664052 -0.73195434 1.9664052 0 0 Z " fill="#3A97D4" transform="translate(167,85)"/>
<path d="M0 0 C0.99 0.33 1.98 0.66 3 1 C2.875 2.8125 2.875 2.8125 2 5 C0 6 -2 7 -4 8 C-5.73490246 10.58443323 -5.73490246 10.58443323 -7 13 C-7.66 13 -8.32 13 -9 13 C-9.66 11.02 -10.32 9.04 -11 7 C-10.34 7 -9.68 7 -9 7 C-9 7.99 -9 8.98 -9 10 C-5.21965377 6.52263974 -5.21965377 6.52263974 -3 2 C-2.01 1.34 -1.02 0.68 0 0 Z " fill="#429ADF" transform="translate(176,115)"/>
<path d="M0 0 C4.68738665 0.90723613 9.34193744 1.9547267 14 3 C13.67 3.66 13.34 4.32 13 5 C8.95245453 6.09193417 5.2462134 6.60790897 1.4375 4.75 C0 3 0 3 0 0 Z " fill="#3698DD" transform="translate(223,114)"/>
<path d="M0 0 C1.32 0 2.64 0 4 0 C4.86343824 2.12124966 5.71550648 4.24713072 6.5625 6.375 C7.27599609 8.15003906 7.27599609 8.15003906 8.00390625 9.9609375 C9 13 9 13 8 15 C7.67 13.68 7.34 12.36 7 11 C6.34 11 5.68 11 5 11 C4.67 11.99 4.34 12.98 4 14 C1.71428571 5.57142857 1.71428571 5.57142857 2 1 C1.34 0.67 0.68 0.34 0 0 Z " fill="#3C96DF" transform="translate(346,94)"/>
<path d="M0 0 C0 0.99 0 1.98 0 3 C-5.94 3.495 -5.94 3.495 -12 4 C-10 0 -10 0 -7.6875 -1.375 C-4.41014452 -2.13717569 -2.94366255 -1.5138836 0 0 Z " fill="#1997F1" transform="translate(164,105)"/>
<path d="M0 0 C2.69082872 0.17635452 5.32851446 0.61835921 8 1 C7.67 1.99 7.34 2.98 7 4 C3.9375 5.1875 3.9375 5.1875 1 6 C1.33 7.32 1.66 8.64 2 10 C0.68 9.67 -0.64 9.34 -2 9 C-1.125 1.125 -1.125 1.125 0 0 Z " fill="#529DD5" transform="translate(136,99)"/>
<path d="M0 0 C1.65 0.33 3.3 0.66 5 1 C4.625 2.9375 4.625 2.9375 4 5 C1.47524538 6.26237731 -0.31200466 6.09856404 -3.125 6.0625 C-4.03507813 6.05347656 -4.94515625 6.04445313 -5.8828125 6.03515625 C-6.58148438 6.02355469 -7.28015625 6.01195313 -8 6 C-8 5.34 -8 4.68 -8 4 C-6.865625 3.71125 -5.73125 3.4225 -4.5625 3.125 C-3.386875 2.75375 -2.21125 2.3825 -1 2 C-0.67 1.34 -0.34 0.68 0 0 Z " fill="#64B0F3" transform="translate(142,117)"/>
<path d="M0 0 C1.32 0.33 2.64 0.66 4 1 C3.57742724 2.4835001 3.13643678 3.96176424 2.6875 5.4375 C2.44386719 6.26121094 2.20023437 7.08492188 1.94921875 7.93359375 C1.63597656 8.61550781 1.32273437 9.29742187 1 10 C0.01 10.33 -0.98 10.66 -2 11 C-2.28571429 3.57142857 -2.28571429 3.57142857 0 0 Z " fill="#3399DE" transform="translate(332,100)"/>
<path d="M0 0 C0.66 0.66 1.32 1.32 2 2 C-0.70879335 3.35439668 -3.00933268 3.06501451 -6 3 C-6.33 3.99 -6.66 4.98 -7 6 C-8.32 5.67 -9.64 5.34 -11 5 C-10.1875 3.0625 -10.1875 3.0625 -9 1 C-5.75778445 -0.08073852 -3.39597063 -0.21676408 0 0 Z " fill="#3296DD" transform="translate(299,100)"/>
<path d="M0 0 C-5.0834287 3.38895246 -9.80356367 4.42347825 -15.8125 5.125 C-16.85180664 5.25455078 -16.85180664 5.25455078 -17.91210938 5.38671875 C-19.60733706 5.59716081 -21.30357755 5.79941672 -23 6 C-22.67 5.34 -22.34 4.68 -22 4 C-20.21484375 3.4375 -20.21484375 3.4375 -17.9375 3 C-14.84142094 2.37979974 -11.79803422 1.69942068 -8.75 0.875 C-5.63182195 0.14742512 -3.16761784 -0.19797612 0 0 Z " fill="#5294C3" transform="translate(159,119)"/>
<path d="M0 0 C0 5.28 0 10.56 0 16 C-0.33 16 -0.66 16 -1 16 C-1.33 12.04 -1.66 8.08 -2 4 C-2.99 4.495 -2.99 4.495 -4 5 C-4.33 4.01 -4.66 3.02 -5 2 C-6.65 1.67 -8.3 1.34 -10 1 C-10 0.67 -10 0.34 -10 0 C-6.05523353 -0.80688405 -4.00001715 -1.00000429 0 0 Z " fill="#3E9FE3" transform="translate(303,103)"/>
<path d="M0 0 C1.99954746 -0.04254356 4.00041636 -0.04080783 6 0 C7 1 7 1 7.09765625 4.59765625 C7.0909822 6.08596867 7.07902183 7.57426432 7.0625 9.0625 C7.05798828 9.82111328 7.05347656 10.57972656 7.04882812 11.36132812 C7.0370068 13.24091871 7.01907078 15.12046899 7 17 C6.67 17 6.34 17 6 17 C5.67 12.38 5.34 7.76 5 3 C3.35 2.67 1.7 2.34 0 2 C0 1.34 0 0.68 0 0 Z " fill="#2697E9" transform="translate(276,101)"/>
<path d="M0 0 C2.35119399 3.52679099 2.21443452 5.02879485 2.125 9.1875 C2.10695313 10.27417969 2.08890625 11.36085938 2.0703125 12.48046875 C2.03550781 13.72763672 2.03550781 13.72763672 2 15 C1.34 15 0.68 15 0 15 C-0.66 13.35 -1.32 11.7 -2 10 C-1.34 10 -0.68 10 0 10 C-0.2784375 8.63875 -0.2784375 8.63875 -0.5625 7.25 C-0.95734621 4.31685676 -0.94691572 2.7355343 0 0 Z " fill="#1B9DEE" transform="translate(300,104)"/>
<path d="M0 0 C2.97 0 5.94 0 9 0 C9 1.32 9 2.64 9 4 C7.02 4.66 5.04 5.32 3 6 C2.87625 5.195625 2.7525 4.39125 2.625 3.5625 C2.315625 2.2940625 2.315625 2.2940625 2 1 C1.34 0.67 0.68 0.34 0 0 Z " fill="#3A9BE0" transform="translate(308,100)"/>
<path d="M0 0 C1.9375 0.1875 1.9375 0.1875 4 1 C5.25 3.0625 5.25 3.0625 6 5 C4.1875 7 4.1875 7 2 9 C1.01 9 0.02 9 -1 9 C-1.66 9.66 -2.32 10.32 -3 11 C-3 9.68 -3 8.36 -3 7 C-1.35 7 0.3 7 2 7 C2 6.34 2 5.68 2 5 C2.66 5 3.32 5 4 5 C2.74458443 2.48916886 1.49936512 2.12874554 -1 1 C-0.67 0.67 -0.34 0.34 0 0 Z " fill="#408EC3" transform="translate(173,88)"/>
<path d="M0 0 C-0.125 1.875 -0.125 1.875 -1 4 C-3.8125 5.4375 -3.8125 5.4375 -7 6 C-9.375 4.625 -9.375 4.625 -11 3 C-9.54293274 2.49632243 -8.08429904 1.99717444 -6.625 1.5 C-5.81289062 1.2215625 -5.00078125 0.943125 -4.1640625 0.65625 C-2 0 -2 0 0 0 Z " fill="#52A5E0" transform="translate(168,111)"/>
<path d="M0 0 C0.99 0.33 1.98 0.66 3 1 C2.34 1.66 1.68 2.32 1 3 C0.62948007 5.3245339 0.62948007 5.3245339 0.5859375 8.0078125 C0.54726563 8.99394531 0.50859375 9.98007813 0.46875 10.99609375 C0.4378125 12.02863281 0.406875 13.06117187 0.375 14.125 C0.33632813 15.16527344 0.29765625 16.20554687 0.2578125 17.27734375 C0.16335234 19.85138311 0.07778786 22.42541155 0 25 C-0.33 25 -0.66 25 -1 25 C-1.02886984 21.02084841 -1.04675406 17.04172347 -1.0625 13.0625 C-1.07087891 11.92619141 -1.07925781 10.78988281 -1.08789062 9.61914062 C-1.09111328 8.53955078 -1.09433594 7.45996094 -1.09765625 6.34765625 C-1.10289307 5.34742432 -1.10812988 4.34719238 -1.11352539 3.31665039 C-1 1 -1 1 0 0 Z " fill="#378EC3" transform="translate(362,94)"/>
<path d="M0 0 C-1.485 1.485 -1.485 1.485 -3 3 C-2.01 4.485 -2.01 4.485 -1 6 C-2.65 5.67 -4.3 5.34 -6 5 C-6 4.34 -6 3.68 -6 3 C-6.66 3 -7.32 3 -8 3 C-8 2.34 -8 1.68 -8 1 C-3.375 -1.125 -3.375 -1.125 0 0 Z " fill="#3D9EE5" transform="translate(166,116)"/>
<path d="M0 0 C0.99 0 1.98 0 3 0 C5 2 5 2 5.125 4.625 C5.08375 5.40875 5.0425 6.1925 5 7 C3.68 7 2.36 7 1 7 C0.67 4.69 0.34 2.38 0 0 Z " fill="#2599EC" transform="translate(199,112)"/>
<path d="M0 0 C0.33 0 0.66 0 1 0 C0.88541307 1.43836751 0.75790884 2.87570966 0.625 4.3125 C0.55539063 5.11300781 0.48578125 5.91351563 0.4140625 6.73828125 C0 9 0 9 -2 12 C-2.66 11.67 -3.32 11.34 -4 11 C-3.5247412 9.35303396 -3.04468109 7.70745272 -2.5625 6.0625 C-2.29566406 5.14597656 -2.02882812 4.22945313 -1.75390625 3.28515625 C-1 1 -1 1 0 0 Z " fill="#2D97E6" transform="translate(208,102)"/>
<path d="M0 0 C1.99097846 2.98646769 2.94124926 5.59687262 4 9 C2.35 9 0.7 9 -1 9 C-1.33 7.35 -1.66 5.7 -2 4 C-1.34 4 -0.68 4 0 4 C0 2.68 0 1.36 0 0 Z " fill="#329AE2" transform="translate(355,110)"/>
<path d="M0 0 C0.33 1.32 0.66 2.64 1 4 C-3.455 4.495 -3.455 4.495 -8 5 C-8 4.34 -8 3.68 -8 3 C-6.68 3.33 -5.36 3.66 -4 4 C-4 3.34 -4 2.68 -4 2 C-4.66 1.67 -5.32 1.34 -6 1 C-3.92446352 0.4465236 -2.15634036 0 0 0 Z " fill="#3E9CE6" transform="translate(299,115)"/>
<path d="M0 0 C0.66 0 1.32 0 2 0 C2.185625 1.2065625 2.185625 1.2065625 2.375 2.4375 C2.58125 3.283125 2.7875 4.12875 3 5 C3.66 5.33 4.32 5.66 5 6 C5 6.66 5 7.32 5 8 C3.02 8 1.04 8 -1 8 C-1.04241723 5.66705225 -1.04092937 3.33297433 -1 1 C-0.67 0.67 -0.34 0.34 0 0 Z " fill="#22A2F0" transform="translate(290,111)"/>
<path d="M0 0 C1.4835001 0.42257276 2.96176424 0.86356322 4.4375 1.3125 C5.67306641 1.67794922 5.67306641 1.67794922 6.93359375 2.05078125 C7.61550781 2.36402344 8.29742187 2.67726563 9 3 C9.33 3.99 9.66 4.98 10 6 C9.34 6 8.68 6 8 6 C8 6.66 8 7.32 8 8 C7.34 7.67 6.68 7.34 6 7 C6 6.34 6 5.68 6 5 C4.02 4.34 2.04 3.68 0 3 C0 2.01 0 1.02 0 0 Z " fill="#2DA1EC" transform="translate(167,87)"/>
<path d="M0 0 C0.66 0 1.32 0 2 0 C1.34 2.31 0.68 4.62 0 7 C0.99 7.33 1.98 7.66 3 8 C2.01 8.495 2.01 8.495 1 9 C-0.32 7.68 -1.64 6.36 -3 5 C-1.625 2.5 -1.625 2.5 0 0 Z " fill="#57AFDA" transform="translate(134,116)"/>
<path d="M0 0 C0.66 0.33 1.32 0.66 2 1 C1.67 2.32 1.34 3.64 1 5 C-0.65 5 -2.3 5 -4 5 C-4.33 4.01 -4.66 3.02 -5 2 C-2.625 0.9375 -2.625 0.9375 0 0 Z " fill="#2098EE" transform="translate(152,113)"/>
<path d="M0 0 C3.63 1.65 7.26 3.3 11 5 C11 5.99 11 6.98 11 8 C10.34 8 9.68 8 9 8 C9 7.34 9 6.68 9 6 C6.03 5.01 3.06 4.02 0 3 C0 2.01 0 1.02 0 0 Z " fill="#409BDC" transform="translate(155,99)"/>
<path d="M0 0 C1.32 0 2.64 0 4 0 C5.35439668 2.70879335 5.06501451 5.00933268 5 8 C4.01 8 3.02 8 2 8 C2 5.69 2 3.38 2 1 C1.34 0.67 0.68 0.34 0 0 Z " fill="#2A94E2" transform="translate(346,94)"/>
<path d="M0 0 C0 3.52032428 -0.70351351 4.4385343 -3 7 C-3.66 7 -4.32 7 -5 7 C-5 5.35 -5 3.7 -5 2 C-3.35 1.34 -1.7 0.68 0 0 Z " fill="#159AFA" transform="translate(172,118)"/>
<path d="M0 0 C0.99 0.33 1.98 0.66 3 1 C2.67 2.32 2.34 3.64 2 5 C0.68 5.33 -0.64 5.66 -2 6 C-1.67 5.01 -1.34 4.02 -1 3 C-1.66 2.67 -2.32 2.34 -3 2 C-2.01 1.34 -1.02 0.68 0 0 Z " fill="#4599C6" transform="translate(176,115)"/>
<path d="M0 0 C2.4375 0.375 2.4375 0.375 5 1 C5.33 1.66 5.66 2.32 6 3 C5.34 3 4.68 3 4 3 C4 3.66 4 4.32 4 5 C2.68 5 1.36 5 0 5 C0 3.35 0 1.7 0 0 Z " fill="#4FA9D1" transform="translate(175,102)"/>
<path d="M0 0 C1.32 0.33 2.64 0.66 4 1 C4 1.66 4 2.32 4 3 C3.34 3 2.68 3 2 3 C2 3.66 2 4.32 2 5 C0.68 5 -0.64 5 -2 5 C-1.34 3.35 -0.68 1.7 0 0 Z " fill="#48B1EC" transform="translate(156,114)"/>
<path d="M0 0 C1.32 0 2.64 0 4 0 C3.67 1.98 3.34 3.96 3 6 C2.34 6 1.68 6 1 6 C0.67 4.02 0.34 2.04 0 0 Z " fill="#1FA0F6" transform="translate(325,113)"/>
<path d="M0 0 C1.98 0.66 3.96 1.32 6 2 C6 2.66 6 3.32 6 4 C3.39417629 4.93065133 2.35801776 5.14917407 -0.25 4.0625 C-0.8275 3.711875 -1.405 3.36125 -2 3 C-1.01 3 -0.02 3 1 3 C0.67 2.01 0.34 1.02 0 0 Z " fill="#3795DC" transform="translate(231,108)"/>
<path d="M0 0 C1.32 0 2.64 0 4 0 C4 1.32 4 2.64 4 4 C2.35 3.67 0.7 3.34 -1 3 C-0.67 2.01 -0.34 1.02 0 0 Z " fill="#3A97D6" transform="translate(216,94)"/>
<path d="M0 0 C0.33 0.99 0.66 1.98 1 3 C-1.31 3.33 -3.62 3.66 -6 4 C-6 3.01 -6 2.02 -6 1 C-4.02 0.67 -2.04 0.34 0 0 Z " fill="#3DA9F4" transform="translate(153,117)"/>
<path d="M0 0 C1.98 0 3.96 0 6 0 C5.67 0.99 5.34 1.98 5 3 C3.35 3 1.7 3 0 3 C0 2.01 0 1.02 0 0 Z " fill="#2597ED" transform="translate(254,117)"/>
<path d="M0 0 C0 0.66 0 1.32 0 2 C-2.31 2.66 -4.62 3.32 -7 4 C-7 3.01 -7 2.02 -7 1 C-4.50935112 0.31292445 -2.62113708 0 0 0 Z " fill="#178CE1" transform="translate(154,111)"/>
<path d="M0 0 C1.32 0 2.64 0 4 0 C4 1.32 4 2.64 4 4 C2.68 4 1.36 4 0 4 C0 2.68 0 1.36 0 0 Z " fill="#4194D1" transform="translate(241,94)"/>
<path d="M0 0 C0.99 0.33 1.98 0.66 3 1 C3 1.99 3 2.98 3 4 C1.68 4 0.36 4 -1 4 C-0.67 2.68 -0.34 1.36 0 0 Z " fill="#5381A1" transform="translate(141,89)"/>
<path d="M0 0 C0.99 0.33 1.98 0.66 3 1 C3 1.99 3 2.98 3 4 C1.68 3.67 0.36 3.34 -1 3 C-0.67 2.01 -0.34 1.02 0 0 Z " fill="#5790B6" transform="translate(134,110)"/>
<path d="M0 0 C0.66 0.33 1.32 0.66 2 1 C1.67 1.99 1.34 2.98 1 4 C0.34 4 -0.32 4 -1 4 C-0.67 2.68 -0.34 1.36 0 0 Z " fill="#36657B" transform="translate(154,82)"/>
<path d="M0 0 C0.99 0.33 1.98 0.66 3 1 C2.67 1.66 2.34 2.32 2 3 C1.01 2.67 0.02 2.34 -1 2 C-0.67 1.34 -0.34 0.68 0 0 Z " fill="#556A99" transform="translate(174,72)"/>
</svg>
