<?xml version="1.0" encoding="UTF-8"?>
<!DOCTYPE svg PUBLIC "-//W3C//DTD SVG 1.1//EN" "http://www.w3.org/Graphics/SVG/1.1/DTD/svg11.dtd">
<svg xmlns="http://www.w3.org/2000/svg" version="1.1" width="500px" height="200px" style="shape-rendering:geometricPrecision; text-rendering:geometricPrecision; image-rendering:optimizeQuality; fill-rule:evenodd; clip-rule:evenodd" xmlns:xlink="http://www.w3.org/1999/xlink">
<g><path style="opacity:0.2" fill="#607091" d="M 173.5,71.5 C 176.674,71.9522 177.007,72.9522 174.5,74.5C 172.481,73.8671 172.147,72.8671 173.5,71.5 Z"/></g>
<g><path style="opacity:0.078" fill="#36637b" d="M 153.5,81.5 C 156.14,82.7936 156.14,84.127 153.5,85.5C 152.374,84.1916 152.374,82.8583 153.5,81.5 Z"/></g>
<g><path style="opacity:1" fill="#4693c4" d="M 170.5,89.5 C 170.167,89.5 169.833,89.5 169.5,89.5C 168.924,86.8758 167.59,86.2092 165.5,87.5C 165.418,85.7483 166.251,84.7483 168,84.5C 169.876,85.619 170.709,87.2856 170.5,89.5 Z"/></g>
<g><path style="opacity:0.341" fill="#5282a1" d="M 140.5,88.5 C 142.912,88.6941 143.912,90.0274 143.5,92.5C 142.167,92.5 140.833,92.5 139.5,92.5C 139.433,91.0413 139.766,89.7079 140.5,88.5 Z"/></g>
<g><path style="opacity:1" fill="#1f9cf0" d="M 169.5,89.5 C 169.5,89.8333 169.5,90.1667 169.5,90.5C 169.167,90.5 168.833,90.5 168.5,90.5C 167.791,89.596 166.791,89.2627 165.5,89.5C 165.5,89.1667 165.5,88.8333 165.5,88.5C 165.5,88.1667 165.5,87.8333 165.5,87.5C 167.59,86.2092 168.924,86.8758 169.5,89.5 Z"/></g>
<g><path style="opacity:0.933" fill="#4891c5" d="M 152.5,93.5 C 152.167,93.5 151.833,93.5 151.5,93.5C 151.5,92.8333 151.167,92.5 150.5,92.5C 149.791,91.596 148.791,91.2627 147.5,91.5C 150.017,88.9258 151.684,89.5925 152.5,93.5 Z"/></g>
<g><path style="opacity:0.902" fill="#4099d5" d="M 165.5,88.5 C 165.5,88.8333 165.5,89.1667 165.5,89.5C 165.167,90.1667 164.833,90.8333 164.5,91.5C 164.167,91.5 163.833,91.5 163.5,91.5C 161.519,92.1054 161.185,93.1054 162.5,94.5C 161.5,94.5 160.5,94.5 159.5,94.5C 159.351,93.448 159.517,92.448 160,91.5C 162.018,90.7772 163.852,89.7772 165.5,88.5 Z"/></g>
<g><path style="opacity:1" fill="#159ffc" d="M 165.5,89.5 C 166.791,89.2627 167.791,89.596 168.5,90.5C 168.672,91.4916 168.338,92.1583 167.5,92.5C 166.791,91.596 165.791,91.2627 164.5,91.5C 164.833,90.8333 165.167,90.1667 165.5,89.5 Z"/></g>
<g><path style="opacity:0.286" fill="#4490c1" d="M 173.5,95.5 C 173.5,95.1667 173.5,94.8333 173.5,94.5C 175.213,93.3646 175.88,91.698 175.5,89.5C 174.167,89.5 172.833,89.5 171.5,89.5C 172.314,87.7274 173.648,87.2274 175.5,88C 179.281,91.3462 178.781,94.1796 174,96.5C 173.601,96.2716 173.435,95.9382 173.5,95.5 Z"/></g>
<g><path style="opacity:1" fill="#1a9af3" d="M 168.5,90.5 C 168.833,90.5 169.167,90.5 169.5,90.5C 171.767,90.1455 173.101,90.4789 173.5,91.5C 171.517,91.1568 170.183,91.8235 169.5,93.5C 168.833,93.5 168.167,93.5 167.5,93.5C 167.5,93.1667 167.5,92.8333 167.5,92.5C 168.338,92.1583 168.672,91.4916 168.5,90.5 Z"/></g>
<g><path style="opacity:1" fill="#108ae0" d="M 173.5,91.5 C 173.443,92.609 173.11,93.609 172.5,94.5C 171.5,94.5 170.5,94.5 169.5,94.5C 169.5,94.1667 169.5,93.8333 169.5,93.5C 170.183,91.8235 171.517,91.1568 173.5,91.5 Z"/></g>
<g><path style="opacity:1" fill="#2f9ee9" d="M 169.5,90.5 C 169.5,90.1667 169.5,89.8333 169.5,89.5C 169.833,89.5 170.167,89.5 170.5,89.5C 170.833,89.5 171.167,89.5 171.5,89.5C 172.833,89.5 174.167,89.5 175.5,89.5C 175.88,91.698 175.213,93.3646 173.5,94.5C 173.167,94.5 172.833,94.5 172.5,94.5C 173.11,93.609 173.443,92.609 173.5,91.5C 173.101,90.4789 171.767,90.1455 169.5,90.5 Z"/></g>
<g><path style="opacity:1" fill="#359ce6" d="M 163.5,91.5 C 165.284,93.4105 166.284,95.7438 166.5,98.5C 166.5,98.8333 166.5,99.1667 166.5,99.5C 165.407,97.6508 164.074,95.9842 162.5,94.5C 161.185,93.1054 161.519,92.1054 163.5,91.5 Z"/></g>
<g><path style="opacity:1" fill="#179afb" d="M 163.5,91.5 C 163.833,91.5 164.167,91.5 164.5,91.5C 165.791,91.2627 166.791,91.596 167.5,92.5C 167.5,92.8333 167.5,93.1667 167.5,93.5C 169.18,95.7264 168.847,97.3931 166.5,98.5C 166.284,95.7438 165.284,93.4105 163.5,91.5 Z"/></g>
<g><path style="opacity:1" fill="#20a2f9" d="M 150.5,92.5 C 151.167,92.5 151.5,92.8333 151.5,93.5C 150.646,95.035 150.646,96.3684 151.5,97.5C 151.167,98.1667 150.833,98.8333 150.5,99.5C 149.662,99.1583 149.328,98.4916 149.5,97.5C 149.5,97.1667 149.5,96.8333 149.5,96.5C 149.433,95.0413 149.766,93.7079 150.5,92.5 Z"/></g>
<g><path style="opacity:1" fill="#4894cf" d="M 240.5,93.5 C 241.833,93.5 243.167,93.5 244.5,93.5C 244.5,94.8333 244.5,96.1667 244.5,97.5C 243.167,97.5 241.833,97.5 240.5,97.5C 240.5,96.1667 240.5,94.8333 240.5,93.5 Z"/></g>
<g><path style="opacity:1" fill="#259ff5" d="M 147.5,91.5 C 148.791,91.2627 149.791,91.596 150.5,92.5C 149.766,93.7079 149.433,95.0413 149.5,96.5C 147.744,95.4479 147.077,93.7812 147.5,91.5 Z"/></g>
<g><path style="opacity:1" fill="#3a9ee4" d="M 151.5,93.5 C 151.833,93.5 152.167,93.5 152.5,93.5C 153.931,94.7804 154.598,96.4471 154.5,98.5C 154.167,98.5 153.833,98.5 153.5,98.5C 153.289,96.5759 152.623,96.2426 151.5,97.5C 150.646,96.3684 150.646,95.035 151.5,93.5 Z"/></g>
<g><path style="opacity:1" fill="#379aea" d="M 167.5,93.5 C 168.167,93.5 168.833,93.5 169.5,93.5C 169.5,93.8333 169.5,94.1667 169.5,94.5C 169.5,95.8333 169.5,97.1667 169.5,98.5C 169.013,101.715 168.013,102.048 166.5,99.5C 166.5,99.1667 166.5,98.8333 166.5,98.5C 168.847,97.3931 169.18,95.7264 167.5,93.5 Z"/></g>
<g><path style="opacity:0.824" fill="#3792d6" d="M 169.5,94.5 C 170.5,94.5 171.5,94.5 172.5,94.5C 172.833,94.5 173.167,94.5 173.5,94.5C 173.5,94.8333 173.5,95.1667 173.5,95.5C 171.57,95.7706 170.236,96.7706 169.5,98.5C 169.5,97.1667 169.5,95.8333 169.5,94.5 Z"/></g>
<g><path style="opacity:1" fill="#3e96d6" d="M 215.5,93.5 C 216.833,93.5 218.167,93.5 219.5,93.5C 219.5,94.8333 219.5,96.1667 219.5,97.5C 215.56,98.234 214.227,96.9007 215.5,93.5 Z"/></g>
<g><path style="opacity:1" fill="#2d94e2" d="M 350.5,98.5 C 349.065,96.5989 347.398,96.2655 345.5,97.5C 345.5,96.5 345.5,95.5 345.5,94.5C 348.934,93.0822 350.601,94.4155 350.5,98.5 Z"/></g>
<g><path style="opacity:1" fill="#37a7f2" d="M 147.5,91.5 C 147.077,93.7812 147.744,95.4479 149.5,96.5C 149.5,96.8333 149.5,97.1667 149.5,97.5C 148.041,97.4326 146.708,97.7659 145.5,98.5C 145.5,97.8333 145.5,97.1667 145.5,96.5C 145.796,94.597 146.463,92.9303 147.5,91.5 Z"/></g>
<g><path style="opacity:0.945" fill="#3999e1" d="M 210.5,99.5 C 208.952,99.1788 208.285,98.1788 208.5,96.5C 208.5,95.5 208.5,94.5 208.5,93.5C 209.833,93.5 211.167,93.5 212.5,93.5C 212.405,95.7857 211.738,97.7857 210.5,99.5 Z"/></g>
<g><path style="opacity:1" fill="#3595d9" d="M 197.5,101.5 C 197.167,101.5 196.833,101.5 196.5,101.5C 195.007,97.5877 194.34,97.921 194.5,102.5C 192.528,99.9164 191.528,96.9164 191.5,93.5C 192.822,93.33 193.989,93.6634 195,94.5C 196.136,96.743 196.97,99.0763 197.5,101.5 Z"/></g>
<g><path style="opacity:1" fill="#389dda" d="M 345.5,94.5 C 345.5,95.5 345.5,96.5 345.5,97.5C 345.5,97.8333 345.5,98.1667 345.5,98.5C 344.326,99.5137 343.66,100.847 343.5,102.5C 343.167,102.5 342.833,102.5 342.5,102.5C 342.98,99.5568 343.98,96.8902 345.5,94.5 Z"/></g>
<g><path style="opacity:1" fill="#239efb" d="M 149.5,97.5 C 149.328,98.4916 149.662,99.1583 150.5,99.5C 150.167,100.167 149.833,100.833 149.5,101.5C 149.167,101.5 148.833,101.5 148.5,101.5C 147.222,101.218 146.222,100.551 145.5,99.5C 145.5,99.1667 145.5,98.8333 145.5,98.5C 146.708,97.7659 148.041,97.4326 149.5,97.5 Z"/></g>
<g><path style="opacity:1" fill="#219df8" d="M 350.5,98.5 C 350.027,99.9063 349.027,100.573 347.5,100.5C 347.167,100.5 346.833,100.5 346.5,100.5C 345.662,100.158 345.328,99.4916 345.5,98.5C 345.5,98.1667 345.5,97.8333 345.5,97.5C 347.398,96.2655 349.065,96.5989 350.5,98.5 Z"/></g>
<g><path style="opacity:1" fill="#3293d7" d="M 364.5,94.5 C 363.833,94.5 363.5,94.8333 363.5,95.5C 362.698,96.9516 362.198,98.6183 362,100.5C 361.501,106.491 361.334,112.491 361.5,118.5C 360.344,110.677 360.177,102.677 361,94.5C 362.292,93.2089 363.458,93.2089 364.5,94.5 Z"/></g>
<g><path style="opacity:1" fill="#4da8ea" d="M 145.5,96.5 C 145.5,97.1667 145.5,97.8333 145.5,98.5C 145.5,98.8333 145.5,99.1667 145.5,99.5C 145.5,99.8333 145.5,100.167 145.5,100.5C 144.391,100.557 143.391,100.89 142.5,101.5C 142.5,101.167 142.5,100.833 142.5,100.5C 143.512,99.1283 144.512,97.795 145.5,96.5 Z"/></g>
<g><path style="opacity:1" fill="#20a0fa" d="M 153.5,98.5 C 153.218,99.7777 152.551,100.778 151.5,101.5C 150.833,101.5 150.167,101.5 149.5,101.5C 149.833,100.833 150.167,100.167 150.5,99.5C 150.833,98.8333 151.167,98.1667 151.5,97.5C 152.623,96.2426 153.289,96.5759 153.5,98.5 Z"/></g>
<g><path style="opacity:0.592" fill="#489ddb" d="M 154.5,98.5 C 156.537,99.8465 158.537,101.18 160.5,102.5C 159.5,102.5 158.5,102.5 157.5,102.5C 155.771,101.764 154.771,100.43 154.5,98.5 Z"/></g>
<g><path style="opacity:1" fill="#359ae9" d="M 196.5,101.5 C 195.566,102.568 195.232,103.901 195.5,105.5C 194.596,104.791 194.263,103.791 194.5,102.5C 194.34,97.921 195.007,97.5877 196.5,101.5 Z"/></g>
<g><path style="opacity:1" fill="#3f98d7" d="M 208.5,96.5 C 208.285,98.1788 208.952,99.1788 210.5,99.5C 210.737,100.791 210.404,101.791 209.5,102.5C 209.179,100.952 208.179,100.285 206.5,100.5C 206.66,98.847 207.326,97.5137 208.5,96.5 Z"/></g>
<g><path style="opacity:0.231" fill="#3890cf" d="M 292.5,100.5 C 295.34,99.0829 298.007,99.4162 300.5,101.5C 298.784,101.371 297.117,101.038 295.5,100.5C 294.5,100.5 293.5,100.5 292.5,100.5 Z"/></g>
<g><path style="opacity:1" fill="#4da1e1" d="M 135.5,99.5 C 137.027,99.427 138.027,100.094 138.5,101.5C 138.5,101.833 138.5,102.167 138.5,102.5C 138.5,103.167 138.167,103.5 137.5,103.5C 137.167,103.5 136.833,103.5 136.5,103.5C 136.5,102.167 135.833,101.5 134.5,101.5C 134.328,100.508 134.662,99.8417 135.5,99.5 Z"/></g>
<g><path style="opacity:0.063" fill="#5d9aca" d="M 135.5,99.5 C 135.735,98.9033 136.235,98.5699 137,98.5C 138.567,99.8561 140.4,100.523 142.5,100.5C 142.5,100.833 142.5,101.167 142.5,101.5C 141.167,101.5 139.833,101.5 138.5,101.5C 138.027,100.094 137.027,99.427 135.5,99.5 Z"/></g>
<g><path style="opacity:1" fill="#3998dd" d="M 274.5,100.5 C 277.655,99.0346 280.489,99.7013 283,102.5C 283.499,107.489 283.666,112.489 283.5,117.5C 283.167,117.5 282.833,117.5 282.5,117.5C 282.5,113.833 282.5,110.167 282.5,106.5C 282.727,104.067 281.727,102.401 279.5,101.5C 277.883,100.962 276.216,100.629 274.5,100.5 Z"/></g>
<g><path style="opacity:0.098" fill="#48a6df" d="M 307.5,100.5 C 308.999,99.506 310.666,99.506 312.5,100.5C 312.5,100.833 312.5,101.167 312.5,101.5C 311.25,101.577 310.417,102.244 310,103.5C 309.536,102.906 309.369,102.239 309.5,101.5C 309.158,100.662 308.492,100.328 307.5,100.5 Z"/></g>
<g><path style="opacity:1" fill="#3895dc" d="M 316.5,102.5 C 315.292,101.766 313.959,101.433 312.5,101.5C 312.5,101.167 312.5,100.833 312.5,100.5C 313.601,99.4017 314.934,99.235 316.5,100C 317.774,100.977 317.774,101.811 316.5,102.5 Z"/></g>
<g><path style="opacity:1" fill="#319fec" d="M 345.5,98.5 C 345.328,99.4916 345.662,100.158 346.5,100.5C 346.371,102.216 346.038,103.883 345.5,105.5C 344.833,104.5 344.167,103.5 343.5,102.5C 343.66,100.847 344.326,99.5137 345.5,98.5 Z"/></g>
<g><path style="opacity:1" fill="#2ea4f5" d="M 145.5,100.5 C 145.5,101.167 145.5,101.833 145.5,102.5C 143.833,102.5 142.167,102.5 140.5,102.5C 139.833,102.5 139.167,102.5 138.5,102.5C 138.5,102.167 138.5,101.833 138.5,101.5C 139.833,101.5 141.167,101.5 142.5,101.5C 143.391,100.89 144.391,100.557 145.5,100.5 Z"/></g>
<g><path style="opacity:1" fill="#23a0f5" d="M 153.5,98.5 C 153.833,98.5 154.167,98.5 154.5,98.5C 154.771,100.43 155.771,101.764 157.5,102.5C 155.549,102.227 154.049,102.893 153,104.5C 152.617,103.944 152.117,103.611 151.5,103.5C 151.5,102.833 151.5,102.167 151.5,101.5C 152.551,100.778 153.218,99.7777 153.5,98.5 Z"/></g>
<g><path style="opacity:1" fill="#3b9ae1" d="M 206.5,100.5 C 208.179,100.285 209.179,100.952 209.5,102.5C 209.672,103.492 209.338,104.158 208.5,104.5C 208.649,103.448 208.483,102.448 208,101.5C 207.148,102.571 206.315,103.571 205.5,104.5C 205.433,103.041 205.766,101.708 206.5,100.5 Z"/></g>
<g><path style="opacity:0.808" fill="#46a0de" d="M 218.5,100.5 C 216.692,101.918 216.025,103.918 216.5,106.5C 216.5,108.167 216.5,109.833 216.5,111.5C 216.5,113.5 216.5,115.5 216.5,117.5C 216.5,117.833 216.5,118.167 216.5,118.5C 215.51,112.355 215.177,106.022 215.5,99.5C 216.791,99.2627 217.791,99.596 218.5,100.5 Z"/></g>
<g><path style="opacity:1" fill="#3398e7" d="M 233.5,100.5 C 235.727,101.401 236.727,103.067 236.5,105.5C 234.486,105.608 232.82,104.942 231.5,103.5C 230.282,102.839 228.949,102.172 227.5,101.5C 229.396,100.534 231.396,100.201 233.5,100.5 Z"/></g>
<g><path style="opacity:0.514" fill="#4e9acf" d="M 240.5,99.5 C 241.833,99.5 243.167,99.5 244.5,99.5C 244.5,105.833 244.5,112.167 244.5,118.5C 243.167,118.5 241.833,118.5 240.5,118.5C 240.5,112.167 240.5,105.833 240.5,99.5 Z"/></g>
<g><path style="opacity:1" fill="#199af4" d="M 253.5,100.5 C 260.167,101.167 260.167,101.833 253.5,102.5C 253.167,102.5 252.833,102.5 252.5,102.5C 252.833,101.833 253.167,101.167 253.5,100.5 Z"/></g>
<g><path style="opacity:1" fill="#3498de" d="M 253.5,100.5 C 258.122,98.4986 261.455,99.8319 263.5,104.5C 262.206,103.71 261.039,102.71 260,101.5C 259.805,102.819 259.972,104.153 260.5,105.5C 258.521,103.832 256.188,103.166 253.5,103.5C 253.5,103.167 253.5,102.833 253.5,102.5C 260.167,101.833 260.167,101.167 253.5,100.5 Z"/></g>
<g><path style="opacity:1" fill="#2098f3" d="M 271.5,100.5 C 272.38,102.611 272.38,104.611 271.5,106.5C 270.833,105.5 270.167,104.5 269.5,103.5C 269.285,101.821 269.952,100.821 271.5,100.5 Z"/></g>
<g><path style="opacity:1" fill="#2e96e4" d="M 273.5,100.5 C 273.833,100.5 274.167,100.5 274.5,100.5C 276.216,100.629 277.883,100.962 279.5,101.5C 279.75,103.674 280.75,105.341 282.5,106.5C 282.5,110.167 282.5,113.833 282.5,117.5C 281.833,114.5 281.167,111.5 280.5,108.5C 280.146,104.154 277.813,102.487 273.5,103.5C 273.5,102.5 273.5,101.5 273.5,100.5 Z"/></g>
<g><path style="opacity:1" fill="#359ae2" d="M 295.5,100.5 C 297.117,101.038 298.784,101.371 300.5,101.5C 302.213,102.635 302.88,104.302 302.5,106.5C 301.057,105.665 300.057,104.332 299.5,102.5C 299.524,103.786 299.19,105.12 298.5,106.5C 297.952,103.916 296.285,102.916 293.5,103.5C 294.167,102.5 294.833,101.5 295.5,100.5 Z"/></g>
<g><path style="opacity:1" fill="#3d95d0" d="M 322.5,102.5 C 321.883,102.389 321.383,102.056 321,101.5C 320.51,102.793 320.343,104.127 320.5,105.5C 318.926,103.898 318.259,101.898 318.5,99.5C 320.973,99.0882 322.306,100.088 322.5,102.5 Z"/></g>
<g><path style="opacity:1" fill="#2199ef" d="M 331.5,100.5 C 333.176,101.183 333.843,102.517 333.5,104.5C 332.883,104.611 332.383,104.944 332,105.5C 331.506,103.866 331.34,102.199 331.5,100.5 Z"/></g>
<g><path style="opacity:0.761" fill="#4791c7" d="M 331.5,100.5 C 332.849,99.2035 334.182,99.3702 335.5,101C 334.915,102.302 334.249,103.469 333.5,104.5C 333.843,102.517 333.176,101.183 331.5,100.5 Z"/></g>
<g><path style="opacity:1" fill="#21a0f7" d="M 140.5,102.5 C 142.167,102.5 143.833,102.5 145.5,102.5C 144.438,104.234 144.438,105.901 145.5,107.5C 144.766,108.708 144.433,110.041 144.5,111.5C 144.167,111.5 143.833,111.5 143.5,111.5C 142.595,110.298 142.595,108.964 143.5,107.5C 143.5,106.167 142.833,105.5 141.5,105.5C 140.89,104.609 140.557,103.609 140.5,102.5 Z"/></g>
<g><path style="opacity:1" fill="#1f9ffd" d="M 145.5,99.5 C 146.222,100.551 147.222,101.218 148.5,101.5C 147.85,103.435 147.517,105.435 147.5,107.5C 146.833,107.5 146.167,107.5 145.5,107.5C 144.438,105.901 144.438,104.234 145.5,102.5C 145.5,101.833 145.5,101.167 145.5,100.5C 145.5,100.167 145.5,99.8333 145.5,99.5 Z"/></g>
<g><path style="opacity:0.992" fill="#39a0e1" d="M 233.5,100.5 C 231.396,100.201 229.396,100.534 227.5,101.5C 228.949,102.172 230.282,102.839 231.5,103.5C 229.708,103.366 228.042,103.699 226.5,104.5C 225.833,101.833 225.167,101.833 224.5,104.5C 224.167,104.5 223.833,104.5 223.5,104.5C 223.137,102.089 224.137,100.589 226.5,100C 229.039,99.2042 231.372,99.3709 233.5,100.5 Z"/></g>
<g><path style="opacity:1" fill="#3e9edf" d="M 253.5,100.5 C 253.167,101.167 252.833,101.833 252.5,102.5C 251.167,103.5 249.833,104.5 248.5,105.5C 249.167,102.833 250.833,101.167 253.5,100.5 Z"/></g>
<g><path style="opacity:1" fill="#47a4e1" d="M 271.5,100.5 C 272.167,100.5 272.833,100.5 273.5,100.5C 273.5,101.5 273.5,102.5 273.5,103.5C 272.932,108.637 272.266,113.637 271.5,118.5C 271.5,115.5 271.5,112.5 271.5,109.5C 271.5,108.5 271.5,107.5 271.5,106.5C 272.38,104.611 272.38,102.611 271.5,100.5 Z"/></g>
<g><path style="opacity:1" fill="#4497d5" d="M 291.5,100.5 C 289.871,102.196 290.204,103.196 292.5,103.5C 291.118,105.898 289.451,106.065 287.5,104C 288.103,101.929 289.436,100.762 291.5,100.5 Z"/></g>
<g><path style="opacity:1" fill="#219cf4" d="M 291.5,100.5 C 291.833,100.5 292.167,100.5 292.5,100.5C 293.5,100.5 294.5,100.5 295.5,100.5C 294.833,101.5 294.167,102.5 293.5,103.5C 293.167,103.5 292.833,103.5 292.5,103.5C 290.204,103.196 289.871,102.196 291.5,100.5 Z"/></g>
<g><path style="opacity:1" fill="#329bec" d="M 309.5,101.5 C 309.369,102.239 309.536,102.906 310,103.5C 310.417,102.244 311.25,101.577 312.5,101.5C 313.959,101.433 315.292,101.766 316.5,102.5C 314.412,103.201 312.412,104.201 310.5,105.5C 310.167,105.5 309.833,105.5 309.5,105.5C 308.167,104.167 308.167,102.833 309.5,101.5 Z"/></g>
<g><path style="opacity:1" fill="#3495e3" d="M 350.5,98.5 C 351.537,99.9303 352.204,101.597 352.5,103.5C 351.105,102.185 350.105,102.519 349.5,104.5C 348.655,103.329 347.989,101.995 347.5,100.5C 349.027,100.573 350.027,99.9063 350.5,98.5 Z"/></g>
<g><path style="opacity:0.043" fill="#5996ba" d="M 179.5,107.5 C 179.737,106.209 179.404,105.209 178.5,104.5C 177.833,104.167 177.167,103.833 176.5,103.5C 175.167,104.167 173.833,104.833 172.5,105.5C 171.365,103.787 169.698,103.12 167.5,103.5C 170.633,102.257 173.967,101.757 177.5,102C 180.41,103.173 181.077,105.006 179.5,107.5 Z"/></g>
<g><path style="opacity:1" fill="#2496ed" d="M 196.5,101.5 C 196.833,101.5 197.167,101.5 197.5,101.5C 197.5,101.833 197.5,102.167 197.5,102.5C 197.715,104.179 197.048,105.179 195.5,105.5C 195.232,103.901 195.566,102.568 196.5,101.5 Z"/></g>
<g><path style="opacity:1" fill="#2d97ea" d="M 208.5,104.5 C 208.737,105.791 208.404,106.791 207.5,107.5C 205.952,107.179 205.285,106.179 205.5,104.5C 206.315,103.571 207.148,102.571 208,101.5C 208.483,102.448 208.649,103.448 208.5,104.5 Z"/></g>
<g><path style="opacity:1" fill="#2198eb" d="M 218.5,100.5 C 218.5,103.5 218.5,106.5 218.5,109.5C 217.833,108.5 217.167,107.5 216.5,106.5C 216.025,103.918 216.692,101.918 218.5,100.5 Z"/></g>
<g><path style="opacity:1" fill="#2298e5" d="M 243.5,109.5 C 242.833,109.5 242.167,109.5 241.5,109.5C 242.167,97.5 242.833,97.5 243.5,109.5 Z"/></g>
<g><path style="opacity:1" fill="#2c9df0" d="M 302.5,106.5 C 302.5,107.167 302.5,107.833 302.5,108.5C 299.932,107.768 297.266,107.768 294.5,108.5C 294.5,108.167 294.5,107.833 294.5,107.5C 295.959,107.567 297.292,107.234 298.5,106.5C 299.19,105.12 299.524,103.786 299.5,102.5C 300.057,104.332 301.057,105.665 302.5,106.5 Z"/></g>
<g><path style="opacity:1" fill="#1e9dfd" d="M 148.5,101.5 C 148.833,101.5 149.167,101.5 149.5,101.5C 150.167,101.5 150.833,101.5 151.5,101.5C 151.5,102.167 151.5,102.833 151.5,103.5C 151.218,104.778 150.551,105.778 149.5,106.5C 149.5,106.833 149.5,107.167 149.5,107.5C 148.833,107.5 148.167,107.5 147.5,107.5C 147.517,105.435 147.85,103.435 148.5,101.5 Z"/></g>
<g><path style="opacity:1" fill="#1595f5" d="M 158.5,104.5 C 158.833,105.167 159.167,105.833 159.5,106.5C 158.508,106.328 157.842,106.662 157.5,107.5C 155.602,108.096 153.935,108.096 152.5,107.5C 153.642,105.028 155.642,104.028 158.5,104.5 Z"/></g>
<g><path style="opacity:0.131" fill="#4694d0" d="M 167.5,103.5 C 169.698,103.12 171.365,103.787 172.5,105.5C 171.708,107.745 170.375,108.078 168.5,106.5C 168.443,105.391 168.11,104.391 167.5,103.5 Z"/></g>
<g><path style="opacity:1" fill="#2f9ae7" d="M 252.5,102.5 C 252.833,102.5 253.167,102.5 253.5,102.5C 253.5,102.833 253.5,103.167 253.5,103.5C 253.068,104.71 252.401,105.71 251.5,106.5C 251.167,106.5 250.833,106.5 250.5,106.5C 248.692,107.918 248.025,109.918 248.5,112.5C 247.167,110.167 247.167,107.833 248.5,105.5C 249.833,104.5 251.167,103.5 252.5,102.5 Z"/></g>
<g><path style="opacity:0.647" fill="#4e9bd3" d="M 271.5,100.5 C 269.952,100.821 269.285,101.821 269.5,103.5C 269.5,105.5 269.5,107.5 269.5,109.5C 269.5,112.5 269.5,115.5 269.5,118.5C 268.51,112.355 268.177,106.022 268.5,99.5C 269.791,99.2627 270.791,99.596 271.5,100.5 Z"/></g>
<g><path style="opacity:1" fill="#2498f2" d="M 279.5,101.5 C 281.727,102.401 282.727,104.067 282.5,106.5C 280.75,105.341 279.75,103.674 279.5,101.5 Z"/></g>
<g><path style="opacity:1" fill="#519ed3" d="M 134.5,101.5 C 135.833,101.5 136.5,102.167 136.5,103.5C 136.586,104.496 136.252,105.329 135.5,106C 136.381,106.708 137.047,107.542 137.5,108.5C 136.178,108.67 135.011,108.337 134,107.5C 133.82,105.512 133.986,103.512 134.5,101.5 Z"/></g>
<g><path style="opacity:1" fill="#1f9bfa" d="M 138.5,102.5 C 139.167,102.5 139.833,102.5 140.5,102.5C 140.557,103.609 140.89,104.609 141.5,105.5C 139.128,107.148 137.794,106.481 137.5,103.5C 138.167,103.5 138.5,103.167 138.5,102.5 Z"/></g>
<g><path style="opacity:1" fill="#1b9df9" d="M 157.5,102.5 C 157.833,103.167 158.167,103.833 158.5,104.5C 155.642,104.028 153.642,105.028 152.5,107.5C 151.791,106.596 150.791,106.263 149.5,106.5C 150.551,105.778 151.218,104.778 151.5,103.5C 152.117,103.611 152.617,103.944 153,104.5C 154.049,102.893 155.549,102.227 157.5,102.5 Z"/></g>
<g><path style="opacity:1" fill="#1e98f0" d="M 157.5,102.5 C 158.5,102.5 159.5,102.5 160.5,102.5C 160.721,103.735 161.388,104.735 162.5,105.5C 161.675,106.386 160.675,106.719 159.5,106.5C 159.167,105.833 158.833,105.167 158.5,104.5C 158.167,103.833 157.833,103.167 157.5,102.5 Z"/></g>
<g><path style="opacity:0.596" fill="#4c91c6" d="M 163.5,103.5 C 164.75,103.577 165.583,104.244 166,105.5C 166.278,104.584 166.778,103.918 167.5,103.5C 168.11,104.391 168.443,105.391 168.5,106.5C 167.209,106.263 166.209,106.596 165.5,107.5C 164.791,108.404 163.791,108.737 162.5,108.5C 162.5,108.167 162.5,107.833 162.5,107.5C 164.62,106.597 164.954,105.263 163.5,103.5 Z"/></g>
<g><path style="opacity:1" fill="#3c95d6" d="M 223.5,104.5 C 223.833,104.5 224.167,104.5 224.5,104.5C 224.615,106.947 225.615,108.947 227.5,110.5C 224.053,109.561 222.72,107.561 223.5,104.5 Z"/></g>
<g><path style="opacity:1" fill="#389ce8" d="M 322.5,102.5 C 323.738,104.214 324.405,106.214 324.5,108.5C 323.849,107.909 323.182,107.243 322.5,106.5C 321.702,106.957 321.369,107.624 321.5,108.5C 320.596,107.791 320.263,106.791 320.5,105.5C 320.343,104.127 320.51,102.793 321,101.5C 321.383,102.056 321.883,102.389 322.5,102.5 Z"/></g>
<g><path style="opacity:1" fill="#3f9ee3" d="M 331.5,100.5 C 331.34,102.199 331.506,103.866 332,105.5C 332.383,104.944 332.883,104.611 333.5,104.5C 332.871,107.397 331.871,110.064 330.5,112.5C 330.66,110.801 330.494,109.134 330,107.5C 329.722,108.416 329.222,109.082 328.5,109.5C 328.928,106.215 329.928,103.215 331.5,100.5 Z"/></g>
<g><path style="opacity:1" fill="#3797e9" d="M 342.5,102.5 C 342.833,102.5 343.167,102.5 343.5,102.5C 344.167,103.5 344.833,104.5 345.5,105.5C 345.167,106.167 344.833,106.833 344.5,107.5C 344.167,107.5 343.833,107.5 343.5,107.5C 343.657,106.127 343.49,104.793 343,103.5C 342.768,104.737 342.268,105.737 341.5,106.5C 341.5,106.167 341.5,105.833 341.5,105.5C 341.263,104.209 341.596,103.209 342.5,102.5 Z"/></g>
<g><path style="opacity:1" fill="#2f99ec" d="M 352.5,103.5 C 353.404,104.209 353.737,105.209 353.5,106.5C 353.5,107.167 353.5,107.833 353.5,108.5C 352.778,108.082 352.278,107.416 352,106.5C 351.617,107.056 351.117,107.389 350.5,107.5C 349.596,106.791 349.263,105.791 349.5,104.5C 350.105,102.519 351.105,102.185 352.5,103.5 Z"/></g>
<g><path style="opacity:1" fill="#2aa0f6" d="M 136.5,103.5 C 136.833,103.5 137.167,103.5 137.5,103.5C 137.794,106.481 139.128,107.148 141.5,105.5C 142.833,105.5 143.5,106.167 143.5,107.5C 141.621,108.341 139.621,108.675 137.5,108.5C 137.047,107.542 136.381,106.708 135.5,106C 136.252,105.329 136.586,104.496 136.5,103.5 Z"/></g>
<g><path style="opacity:1" fill="#1999f2" d="M 149.5,107.5 C 149.5,107.167 149.5,106.833 149.5,106.5C 150.791,106.263 151.791,106.596 152.5,107.5C 153.935,108.096 155.602,108.096 157.5,107.5C 156.833,108.167 156.167,108.833 155.5,109.5C 152.833,110.167 150.167,110.833 147.5,111.5C 147.082,110.778 146.416,110.278 145.5,110C 147.577,109.808 149.577,109.308 151.5,108.5C 151.043,107.702 150.376,107.369 149.5,107.5 Z"/></g>
<g><path style="opacity:1" fill="#2d98e6" d="M 160.5,102.5 C 161.609,102.557 162.609,102.89 163.5,103.5C 164.954,105.263 164.62,106.597 162.5,107.5C 160.833,107.5 159.167,107.5 157.5,107.5C 157.842,106.662 158.508,106.328 159.5,106.5C 160.675,106.719 161.675,106.386 162.5,105.5C 161.388,104.735 160.721,103.735 160.5,102.5 Z"/></g>
<g><path style="opacity:0.667" fill="#5dace8" d="M 176.5,103.5 C 177.167,103.833 177.833,104.167 178.5,104.5C 177.733,108.316 175.733,109.983 172.5,109.5C 173.833,107.5 175.167,105.5 176.5,103.5 Z"/></g>
<g><path style="opacity:0.118" fill="#5595c5" d="M 178.5,104.5 C 179.404,105.209 179.737,106.209 179.5,107.5C 178.008,110.323 175.674,111.99 172.5,112.5C 172.5,111.5 172.5,110.5 172.5,109.5C 175.733,109.983 177.733,108.316 178.5,104.5 Z"/></g>
<g><path style="opacity:1" fill="#3997df" d="M 197.5,102.5 C 198.537,103.93 199.204,105.597 199.5,107.5C 197.952,107.821 197.285,108.821 197.5,110.5C 196.069,109.22 195.402,107.553 195.5,105.5C 197.048,105.179 197.715,104.179 197.5,102.5 Z"/></g>
<g><path style="opacity:1" fill="#2699f0" d="M 226.5,104.5 C 227.262,106.262 228.596,107.262 230.5,107.5C 231.914,109.598 231.248,110.598 228.5,110.5C 228.167,110.5 227.833,110.5 227.5,110.5C 225.615,108.947 224.615,106.947 224.5,104.5C 225.167,101.833 225.833,101.833 226.5,104.5 Z"/></g>
<g><path style="opacity:1" fill="#339ae7" d="M 263.5,104.5 C 264.434,105.568 264.768,106.901 264.5,108.5C 263.1,109.1 262.1,110.1 261.5,111.5C 261.483,109.435 261.15,107.435 260.5,105.5C 259.972,104.153 259.805,102.819 260,101.5C 261.039,102.71 262.206,103.71 263.5,104.5 Z"/></g>
<g><path style="opacity:1" fill="#2598e6" d="M 307.5,100.5 C 308.492,100.328 309.158,100.662 309.5,101.5C 308.167,102.833 308.167,104.167 309.5,105.5C 309.5,106.5 309.5,107.5 309.5,108.5C 308.833,108.5 308.167,108.5 307.5,108.5C 307.5,105.833 307.5,103.167 307.5,100.5 Z"/></g>
<g><path style="opacity:0.075" fill="#5aa2d2" d="M 176.5,103.5 C 175.167,105.5 173.833,107.5 172.5,109.5C 170.883,110.038 169.216,110.371 167.5,110.5C 170.307,107.956 169.64,106.956 165.5,107.5C 166.209,106.596 167.209,106.263 168.5,106.5C 170.375,108.078 171.708,107.745 172.5,105.5C 173.833,104.833 175.167,104.167 176.5,103.5 Z"/></g>
<g><path style="opacity:1" fill="#2397e5" d="M 269.5,103.5 C 270.167,104.5 270.833,105.5 271.5,106.5C 271.5,107.5 271.5,108.5 271.5,109.5C 270.833,109.5 270.167,109.5 269.5,109.5C 269.5,107.5 269.5,105.5 269.5,103.5 Z"/></g>
<g><path style="opacity:1" fill="#40a1e7" d="M 143.5,107.5 C 142.595,108.964 142.595,110.298 143.5,111.5C 143.5,112.167 143.167,112.5 142.5,112.5C 141.016,110.926 139.349,109.593 137.5,108.5C 139.621,108.675 141.621,108.341 143.5,107.5 Z"/></g>
<g><path style="opacity:1" fill="#1e99ef" d="M 145.5,107.5 C 146.167,107.5 146.833,107.5 147.5,107.5C 148.167,107.5 148.833,107.5 149.5,107.5C 150.376,107.369 151.043,107.702 151.5,108.5C 149.577,109.308 147.577,109.808 145.5,110C 146.416,110.278 147.082,110.778 147.5,111.5C 147.158,112.338 146.492,112.672 145.5,112.5C 145.5,111.833 145.167,111.5 144.5,111.5C 144.433,110.041 144.766,108.708 145.5,107.5 Z"/></g>
<g><path style="opacity:1" fill="#3b9ee6" d="M 205.5,104.5 C 205.285,106.179 205.952,107.179 207.5,107.5C 207.405,109.786 206.738,111.786 205.5,113.5C 204.807,110.033 203.807,110.366 202.5,114.5C 201.662,114.158 201.328,113.492 201.5,112.5C 202.833,109.833 204.167,107.167 205.5,104.5 Z"/></g>
<g><path style="opacity:1" fill="#299ef6" d="M 302.5,108.5 C 302.5,110.167 302.5,111.833 302.5,113.5C 301.167,113.5 300.5,112.833 300.5,111.5C 299.947,109.448 298.947,109.115 297.5,110.5C 296.5,110.5 295.5,110.5 294.5,110.5C 293.167,109.833 293.167,109.167 294.5,108.5C 297.266,107.768 299.932,107.768 302.5,108.5 Z"/></g>
<g><path style="opacity:0.49" fill="#3fa3e8" d="M 343.5,107.5 C 343.833,107.5 344.167,107.5 344.5,107.5C 346.265,108.461 348.265,108.795 350.5,108.5C 350.5,109.167 350.167,109.5 349.5,109.5C 347.833,109.5 346.167,109.5 344.5,109.5C 343.662,109.158 343.328,108.492 343.5,107.5 Z"/></g>
<g><path style="opacity:0.975" fill="#31bffc" d="M 364.5,94.5 C 365.74,101.846 365.74,109.179 364.5,116.5C 363.509,109.687 363.175,102.687 363.5,95.5C 363.5,94.8333 363.833,94.5 364.5,94.5 Z"/></g>
<g><path style="opacity:0.992" fill="#338aca" d="M 157.5,107.5 C 159.167,107.5 160.833,107.5 162.5,107.5C 162.5,107.833 162.5,108.167 162.5,108.5C 160.351,109.736 158.018,110.736 155.5,111.5C 155.5,110.833 155.5,110.167 155.5,109.5C 156.167,108.833 156.833,108.167 157.5,107.5 Z"/></g>
<g><path style="opacity:1" fill="#3698e7" d="M 199.5,107.5 C 200.434,108.568 200.768,109.901 200.5,111.5C 199.167,111.5 198.5,112.167 198.5,113.5C 197.596,112.791 197.263,111.791 197.5,110.5C 197.285,108.821 197.952,107.821 199.5,107.5 Z"/></g>
<g><path style="opacity:1" fill="#1a99f4" d="M 216.5,106.5 C 217.167,107.5 217.833,108.5 218.5,109.5C 218.5,110.5 218.5,111.5 218.5,112.5C 217.833,112.167 217.167,111.833 216.5,111.5C 216.5,109.833 216.5,108.167 216.5,106.5 Z"/></g>
<g><path style="opacity:1" fill="#3996dd" d="M 230.5,107.5 C 233.267,107.87 235.267,109.204 236.5,111.5C 234.162,109.989 233.496,110.323 234.5,112.5C 234.167,112.5 233.833,112.5 233.5,112.5C 231.694,111.976 230.028,111.309 228.5,110.5C 231.248,110.598 231.914,109.598 230.5,107.5 Z"/></g>
<g><path style="opacity:0.392" fill="#3a96dc" d="M 250.5,106.5 C 250.833,106.5 251.167,106.5 251.5,106.5C 251.401,109.237 251.735,111.904 252.5,114.5C 251.833,114.167 251.167,113.833 250.5,113.5C 250.5,111.167 250.5,108.833 250.5,106.5 Z"/></g>
<g><path style="opacity:1" fill="#3699de" d="M 294.5,107.5 C 294.5,107.833 294.5,108.167 294.5,108.5C 293.167,109.167 293.167,109.833 294.5,110.5C 293.791,111.404 292.791,111.737 291.5,111.5C 291.5,110.167 290.833,109.5 289.5,109.5C 290.78,108.069 292.447,107.402 294.5,107.5 Z"/></g>
<g><path style="opacity:1" fill="#2e9eee" d="M 324.5,108.5 C 325.143,110.076 326.143,111.41 327.5,112.5C 327.631,113.376 327.298,114.043 326.5,114.5C 325.818,113.757 325.151,113.091 324.5,112.5C 323.833,112.167 323.167,111.833 322.5,111.5C 321.596,110.791 321.263,109.791 321.5,108.5C 321.369,107.624 321.702,106.957 322.5,106.5C 323.182,107.243 323.849,107.909 324.5,108.5 Z"/></g>
<g><path style="opacity:1" fill="#1a97f4" d="M 343.5,107.5 C 343.328,108.492 343.662,109.158 344.5,109.5C 344.5,109.833 344.5,110.167 344.5,110.5C 343.127,110.657 341.793,110.49 340.5,110C 341.337,108.989 341.67,107.822 341.5,106.5C 342.268,105.737 342.768,104.737 343,103.5C 343.49,104.793 343.657,106.127 343.5,107.5 Z"/></g>
<g><path style="opacity:1" fill="#1f97ea" d="M 344.5,110.5 C 344.5,110.167 344.5,109.833 344.5,109.5C 346.167,109.5 347.833,109.5 349.5,109.5C 350.5,110.167 351.5,110.833 352.5,111.5C 349.794,111.425 347.127,111.092 344.5,110.5 Z"/></g>
<g><path style="opacity:1" fill="#189cf5" d="M 353.5,108.5 C 354.218,110.137 354.384,111.803 354,113.5C 353.617,112.944 353.117,112.611 352.5,112.5C 352.5,112.167 352.5,111.833 352.5,111.5C 351.5,110.833 350.5,110.167 349.5,109.5C 350.167,109.5 350.5,109.167 350.5,108.5C 350.5,108.167 350.5,107.833 350.5,107.5C 351.117,107.389 351.617,107.056 352,106.5C 352.278,107.416 352.778,108.082 353.5,108.5 Z"/></g>
<g><path style="opacity:1" fill="#32a6eb" d="M 297.5,110.5 C 298.947,109.115 299.947,109.448 300.5,111.5C 299.596,112.209 299.263,113.209 299.5,114.5C 298.833,114.5 298.167,114.5 297.5,114.5C 298.686,113.039 298.686,111.705 297.5,110.5 Z"/></g>
<g><path style="opacity:1" fill="#3c9de2" d="M 341.5,105.5 C 341.5,105.833 341.5,106.167 341.5,106.5C 341.67,107.822 341.337,108.989 340.5,110C 341.793,110.49 343.127,110.657 344.5,110.5C 347.127,111.092 349.794,111.425 352.5,111.5C 352.5,111.833 352.5,112.167 352.5,112.5C 348.498,112.036 344.831,112.702 341.5,114.5C 341.715,112.821 341.048,111.821 339.5,111.5C 339.595,109.214 340.262,107.214 341.5,105.5 Z"/></g>
<g><path style="opacity:0.655" fill="#5994bb" d="M 136.5,113.5 C 133.834,113.934 132.667,112.934 133,110.5C 135.658,109.306 136.824,110.306 136.5,113.5 Z"/></g>
<g><path style="opacity:0.231" fill="#54a6e3" d="M 172.5,109.5 C 172.5,110.5 172.5,111.5 172.5,112.5C 171.449,113.222 170.782,114.222 170.5,115.5C 168.952,115.179 168.285,114.179 168.5,112.5C 168.548,111.493 167.548,111.16 165.5,111.5C 165.842,110.662 166.508,110.328 167.5,110.5C 169.216,110.371 170.883,110.038 172.5,109.5 Z"/></g>
<g><path style="opacity:1" fill="#2999ee" d="M 200.5,111.5 C 201.167,111.5 201.5,111.833 201.5,112.5C 201.328,113.492 201.662,114.158 202.5,114.5C 202.5,115.833 202.5,117.167 202.5,118.5C 199.53,118.254 198.197,116.588 198.5,113.5C 198.5,112.167 199.167,111.5 200.5,111.5 Z"/></g>
<g><path style="opacity:1" fill="#1c9af5" d="M 250.5,106.5 C 250.5,108.833 250.5,111.167 250.5,113.5C 249.833,113.5 249.167,113.5 248.5,113.5C 248.5,113.167 248.5,112.833 248.5,112.5C 248.025,109.918 248.692,107.918 250.5,106.5 Z"/></g>
<g><path style="opacity:1" fill="#2f98e8" d="M 264.5,108.5 C 265.043,108.56 265.376,108.893 265.5,109.5C 264.942,112.127 263.942,114.46 262.5,116.5C 261.449,115.778 260.782,114.778 260.5,113.5C 260.328,112.508 260.662,111.842 261.5,111.5C 262.1,110.1 263.1,109.1 264.5,108.5 Z"/></g>
<g><path style="opacity:1" fill="#2396ea" d="M 269.5,109.5 C 270.167,109.5 270.833,109.5 271.5,109.5C 271.5,112.5 271.5,115.5 271.5,118.5C 270.833,118.5 270.167,118.5 269.5,118.5C 269.5,115.5 269.5,112.5 269.5,109.5 Z"/></g>
<g><path style="opacity:1" fill="#329ced" d="M 330.5,112.5 C 330.5,113.167 330.5,113.833 330.5,114.5C 329.778,113.449 328.778,112.782 327.5,112.5C 327.263,111.209 327.596,110.209 328.5,109.5C 329.222,109.082 329.722,108.416 330,107.5C 330.494,109.134 330.66,110.801 330.5,112.5 Z"/></g>
<g><path style="opacity:1" fill="#2199ee" d="M 363.5,95.5 C 363.175,102.687 363.509,109.687 364.5,116.5C 364.179,118.048 363.179,118.715 361.5,118.5C 361.334,112.491 361.501,106.491 362,100.5C 362.198,98.6183 362.698,96.9516 363.5,95.5 Z"/></g>
<g><path style="opacity:1" fill="#198ae0" d="M 155.5,109.5 C 155.5,110.167 155.5,110.833 155.5,111.5C 154.833,111.5 154.167,111.5 153.5,111.5C 151.167,112.167 148.833,112.833 146.5,113.5C 145.833,113.5 145.5,113.167 145.5,112.5C 146.492,112.672 147.158,112.338 147.5,111.5C 150.167,110.833 152.833,110.167 155.5,109.5 Z"/></g>
<g><path style="opacity:0.647" fill="#53a0db" d="M 165.5,111.5 C 164.89,112.391 164.557,113.391 164.5,114.5C 164.167,114.5 163.833,114.5 163.5,114.5C 161.741,114.046 159.741,114.046 157.5,114.5C 157.5,114.167 157.5,113.833 157.5,113.5C 160.006,112.25 162.673,111.584 165.5,111.5 Z"/></g>
<g><path style="opacity:1" fill="#1a9af5" d="M 236.5,111.5 C 235.962,113.117 235.629,114.784 235.5,116.5C 234.833,116.5 234.167,116.5 233.5,116.5C 234.234,115.292 234.567,113.959 234.5,112.5C 233.496,110.323 234.162,109.989 236.5,111.5 Z"/></g>
<g><path style="opacity:1" fill="#1c95ec" d="M 153.5,111.5 C 153.025,113.784 152.025,115.784 150.5,117.5C 150.167,117.5 149.833,117.5 149.5,117.5C 149.229,115.57 148.229,114.236 146.5,113.5C 148.833,112.833 151.167,112.167 153.5,111.5 Z"/></g>
<g><path style="opacity:0.357" fill="#4dacf4" d="M 165.5,111.5 C 167.548,111.16 168.548,111.493 168.5,112.5C 167.5,113.167 166.5,113.833 165.5,114.5C 165.167,114.5 164.833,114.5 164.5,114.5C 164.557,113.391 164.89,112.391 165.5,111.5 Z"/></g>
<g><path style="opacity:1" fill="#2198ee" d="M 241.5,109.5 C 242.167,109.5 242.833,109.5 243.5,109.5C 242.833,120.167 242.167,120.167 241.5,109.5 Z"/></g>
<g><path style="opacity:1" fill="#3596de" d="M 248.5,113.5 C 249.167,113.5 249.833,113.5 250.5,113.5C 251.167,113.833 251.833,114.167 252.5,114.5C 253.167,114.5 253.5,114.833 253.5,115.5C 252.761,115.369 252.094,115.536 251.5,116C 252.381,116.708 253.047,117.542 253.5,118.5C 250.833,117.833 249.167,116.167 248.5,113.5 Z"/></g>
<g><path style="opacity:1" fill="#3f99dd" d="M 322.5,111.5 C 323.167,111.833 323.833,112.167 324.5,112.5C 325.497,115.328 325.497,117.995 324.5,120.5C 324.127,117.426 323.461,114.426 322.5,111.5 Z"/></g>
<g><path style="opacity:1" fill="#3798e1" d="M 339.5,111.5 C 341.048,111.821 341.715,112.821 341.5,114.5C 341.499,118.252 339.833,119.252 336.5,117.5C 337.136,115.22 338.136,113.22 339.5,111.5 Z"/></g>
<g><path style="opacity:1" fill="#3898e3" d="M 353.5,106.5 C 355.049,110.291 356.716,114.124 358.5,118C 356.866,118.494 355.199,118.66 353.5,118.5C 353.167,116.5 352.833,114.5 352.5,112.5C 353.117,112.611 353.617,112.944 354,113.5C 354.384,111.803 354.218,110.137 353.5,108.5C 353.5,107.833 353.5,107.167 353.5,106.5 Z"/></g>
<g><path style="opacity:0.067" fill="#59a4dc" d="M 139.5,114.5 C 140.833,114.5 141.5,115.167 141.5,116.5C 141.5,117.167 141.5,117.833 141.5,118.5C 140.542,118.953 139.708,119.619 139,120.5C 138.536,119.906 138.369,119.239 138.5,118.5C 138.5,118.167 138.5,117.833 138.5,117.5C 139.692,116.434 139.359,115.601 137.5,115C 138.094,114.536 138.761,114.369 139.5,114.5 Z"/></g>
<g><path style="opacity:0.133" fill="#54a1d1" d="M 143.5,111.5 C 143.833,111.5 144.167,111.5 144.5,111.5C 144.433,112.959 144.766,114.292 145.5,115.5C 144.391,115.557 143.391,115.89 142.5,116.5C 142.167,116.5 141.833,116.5 141.5,116.5C 141.5,115.167 140.833,114.5 139.5,114.5C 139.5,113.833 139.167,113.5 138.5,113.5C 139.833,113.167 141.167,112.833 142.5,112.5C 143.167,112.5 143.5,112.167 143.5,111.5 Z"/></g>
<g><path style="opacity:0.814" fill="#4fb2f6" d="M 163.5,114.5 C 161.47,115.659 159.137,116.326 156.5,116.5C 156.328,115.508 156.662,114.842 157.5,114.5C 159.741,114.046 161.741,114.046 163.5,114.5 Z"/></g>
<g><path style="opacity:0.086" fill="#3796d8" d="M 218.5,100.5 C 219.49,106.31 219.823,112.31 219.5,118.5C 218.5,118.5 217.5,118.5 216.5,118.5C 216.5,118.167 216.5,117.833 216.5,117.5C 218.256,116.448 218.923,114.781 218.5,112.5C 218.5,111.5 218.5,110.5 218.5,109.5C 218.5,106.5 218.5,103.5 218.5,100.5 Z"/></g>
<g><path style="opacity:1" fill="#4398d9" d="M 227.5,115.5 C 226.448,115.351 225.448,115.517 224.5,116C 225.381,116.708 226.047,117.542 226.5,118.5C 223.703,118.033 222.369,116.367 222.5,113.5C 224.698,113.12 226.365,113.787 227.5,115.5 Z"/></g>
<g><path style="opacity:1" fill="#3996dd" d="M 236.5,111.5 C 237.794,113.68 237.461,115.68 235.5,117.5C 235.5,117.167 235.5,116.833 235.5,116.5C 235.629,114.784 235.962,113.117 236.5,111.5 Z"/></g>
<g><path style="opacity:1" fill="#4494cd" d="M 280.5,108.5 C 281.167,111.5 281.833,114.5 282.5,117.5C 282.833,117.5 283.167,117.5 283.5,117.5C 282.791,118.404 281.791,118.737 280.5,118.5C 280.5,115.167 280.5,111.833 280.5,108.5 Z"/></g>
<g><path style="opacity:1" fill="#419ee2" d="M 300.5,111.5 C 300.5,112.833 301.167,113.5 302.5,113.5C 302.5,115.167 302.5,116.833 302.5,118.5C 300.5,118.5 298.5,118.5 296.5,118.5C 297.52,117.046 298.687,116.713 300,117.5C 300.74,116.251 300.573,115.251 299.5,114.5C 299.263,113.209 299.596,112.209 300.5,111.5 Z"/></g>
<g><path style="opacity:1" fill="#2b9aea" d="M 144.5,111.5 C 145.167,111.5 145.5,111.833 145.5,112.5C 145.5,113.167 145.833,113.5 146.5,113.5C 148.229,114.236 149.229,115.57 149.5,117.5C 148.833,117.5 148.167,117.5 147.5,117.5C 147.5,116.167 146.833,115.5 145.5,115.5C 144.766,114.292 144.433,112.959 144.5,111.5 Z"/></g>
<g><path style="opacity:0.653" fill="#4cb0e4" d="M 157.5,113.5 C 157.5,113.833 157.5,114.167 157.5,114.5C 156.662,114.842 156.328,115.508 156.5,116.5C 156.5,117.167 156.833,117.5 157.5,117.5C 157.5,117.833 157.5,118.167 157.5,118.5C 156.167,118.5 154.833,118.5 153.5,118.5C 153.5,117.833 153.5,117.167 153.5,116.5C 154.167,115.833 154.833,115.167 155.5,114.5C 155.842,113.662 156.508,113.328 157.5,113.5 Z"/></g>
<g><path style="opacity:1" fill="#3197e5" d="M 205.5,113.5 C 205.408,115.848 204.408,117.514 202.5,118.5C 202.5,117.167 202.5,115.833 202.5,114.5C 203.807,110.366 204.807,110.033 205.5,113.5 Z"/></g>
<g><path style="opacity:1" fill="#369be6" d="M 233.5,112.5 C 233.833,112.5 234.167,112.5 234.5,112.5C 234.567,113.959 234.234,115.292 233.5,116.5C 231.265,116.795 229.265,116.461 227.5,115.5C 229.199,115.66 230.866,115.494 232.5,115C 233.252,114.329 233.586,113.496 233.5,112.5 Z"/></g>
<g><path style="opacity:1" fill="#3799e2" d="M 260.5,113.5 C 260.782,114.778 261.449,115.778 262.5,116.5C 262.027,117.906 261.027,118.573 259.5,118.5C 258.198,116.972 256.531,115.972 254.5,115.5C 256.858,115.747 258.858,115.081 260.5,113.5 Z"/></g>
<g><path style="opacity:1" fill="#339ae8" d="M 289.5,109.5 C 290.833,109.5 291.5,110.167 291.5,111.5C 291.5,111.833 291.5,112.167 291.5,112.5C 289.158,113.211 288.825,114.544 290.5,116.5C 290.5,117.167 290.5,117.833 290.5,118.5C 288.265,117.714 287.265,116.048 287.5,113.5C 287.34,111.645 288.007,110.312 289.5,109.5 Z"/></g>
<g><path style="opacity:1" fill="#30a0ea" d="M 291.5,112.5 C 290.402,113.397 290.402,114.23 291.5,115C 293.134,115.494 294.801,115.66 296.5,115.5C 297.067,116.42 296.401,116.754 294.5,116.5C 293.167,116.5 291.833,116.5 290.5,116.5C 288.825,114.544 289.158,113.211 291.5,112.5 Z"/></g>
<g><path style="opacity:0.322" fill="#4d99d1" d="M 307.5,100.5 C 307.5,103.167 307.5,105.833 307.5,108.5C 307.5,110.167 307.5,111.833 307.5,113.5C 308.167,118.833 308.833,118.833 309.5,113.5C 309.5,111.833 309.5,110.167 309.5,108.5C 309.5,107.5 309.5,106.5 309.5,105.5C 309.833,105.5 310.167,105.5 310.5,105.5C 310.5,109.833 310.5,114.167 310.5,118.5C 309.167,118.5 307.833,118.5 306.5,118.5C 306.177,112.31 306.51,106.31 307.5,100.5 Z"/></g>
<g><path style="opacity:1" fill="#2296ee" d="M 307.5,113.5 C 308.167,113.5 308.833,113.5 309.5,113.5C 308.833,118.833 308.167,118.833 307.5,113.5 Z"/></g>
<g><path style="opacity:1" fill="#1f97ed" d="M 307.5,108.5 C 308.167,108.5 308.833,108.5 309.5,108.5C 309.5,110.167 309.5,111.833 309.5,113.5C 308.833,113.5 308.167,113.5 307.5,113.5C 307.5,111.833 307.5,110.167 307.5,108.5 Z"/></g>
<g><path style="opacity:1" fill="#2598f2" d="M 324.5,112.5 C 325.151,113.091 325.818,113.757 326.5,114.5C 327.298,114.043 327.631,113.376 327.5,112.5C 328.778,112.782 329.778,113.449 330.5,114.5C 330.5,115.167 330.167,115.5 329.5,115.5C 328.5,115.5 327.5,115.5 326.5,115.5C 326.5,117.833 326.5,120.167 326.5,122.5C 325.167,122.5 324.5,121.833 324.5,120.5C 325.497,117.995 325.497,115.328 324.5,112.5 Z"/></g>
<g><path style="opacity:0.165" fill="#5997d2" d="M 136.5,113.5 C 137.167,113.5 137.833,113.5 138.5,113.5C 139.167,113.5 139.5,113.833 139.5,114.5C 138.761,114.369 138.094,114.536 137.5,115C 139.359,115.601 139.692,116.434 138.5,117.5C 137.5,117.5 136.5,117.5 135.5,117.5C 135.5,116.833 135.5,116.167 135.5,115.5C 135.833,114.833 136.167,114.167 136.5,113.5 Z"/></g>
<g><path style="opacity:1" fill="#359ceb" d="M 153.5,111.5 C 154.167,111.5 154.833,111.5 155.5,111.5C 154.375,112.652 154.375,113.652 155.5,114.5C 154.833,115.167 154.167,115.833 153.5,116.5C 152.609,117.11 151.609,117.443 150.5,117.5C 152.025,115.784 153.025,113.784 153.5,111.5 Z"/></g>
<g><path style="opacity:0.294" fill="#39a5ec" d="M 163.5,114.5 C 163.833,114.5 164.167,114.5 164.5,114.5C 164.833,114.5 165.167,114.5 165.5,114.5C 164.833,115.167 164.167,115.833 163.5,116.5C 163.5,116.833 163.5,117.167 163.5,117.5C 162.833,117.833 162.167,118.167 161.5,118.5C 160.432,117.566 159.099,117.232 157.5,117.5C 156.833,117.5 156.5,117.167 156.5,116.5C 159.137,116.326 161.47,115.659 163.5,114.5 Z"/></g>
<g><path style="opacity:1" fill="#2092e7" d="M 168.5,112.5 C 168.285,114.179 168.952,115.179 170.5,115.5C 170.5,115.833 170.5,116.167 170.5,116.5C 169.209,116.263 168.209,116.596 167.5,117.5C 166.292,116.766 164.959,116.433 163.5,116.5C 164.167,115.833 164.833,115.167 165.5,114.5C 166.5,113.833 167.5,113.167 168.5,112.5 Z"/></g>
<g><path style="opacity:1" fill="#159afb" d="M 167.5,117.5 C 168.209,116.596 169.209,116.263 170.5,116.5C 172.62,117.403 172.954,118.737 171.5,120.5C 170.5,120.833 169.833,121.5 169.5,122.5C 168.391,122.443 167.391,122.11 166.5,121.5C 166.36,119.876 167.027,118.71 168.5,118C 168.272,117.601 167.938,117.435 167.5,117.5 Z"/></g>
<g><path style="opacity:1" fill="#1d98ed" d="M 216.5,111.5 C 217.167,111.833 217.833,112.167 218.5,112.5C 218.923,114.781 218.256,116.448 216.5,117.5C 216.5,115.5 216.5,113.5 216.5,111.5 Z"/></g>
<g><path style="opacity:1" fill="#2599ee" d="M 227.5,115.5 C 229.265,116.461 231.265,116.795 233.5,116.5C 234.167,116.5 234.833,116.5 235.5,116.5C 235.5,116.833 235.5,117.167 235.5,117.5C 232.518,117.963 229.518,118.296 226.5,118.5C 226.047,117.542 225.381,116.708 224.5,116C 225.448,115.517 226.448,115.351 227.5,115.5 Z"/></g>
<g><path style="opacity:0.694" fill="#3e98d7" d="M 157.5,118.5 C 157.5,118.167 157.5,117.833 157.5,117.5C 159.099,117.232 160.432,117.566 161.5,118.5C 161.5,119.167 161.5,119.833 161.5,120.5C 160.222,120.218 159.222,119.551 158.5,118.5C 158.167,118.5 157.833,118.5 157.5,118.5 Z"/></g>
<g><path style="opacity:1" fill="#199bf7" d="M 163.5,116.5 C 164.959,116.433 166.292,116.766 167.5,117.5C 167.938,117.435 168.272,117.601 168.5,118C 167.027,118.71 166.36,119.876 166.5,121.5C 165.833,121.167 165.167,120.833 164.5,120.5C 164.443,119.391 164.11,118.391 163.5,117.5C 163.5,117.167 163.5,116.833 163.5,116.5 Z"/></g>
<g><path style="opacity:0.576" fill="#4996c9" d="M 173.5,120.5 C 173.5,119.167 173.5,117.833 173.5,116.5C 174.458,116.047 175.292,115.381 176,114.5C 179.463,117.927 178.63,119.927 173.5,120.5 Z"/></g>
<g><path style="opacity:1" fill="#2697f0" d="M 253.5,115.5 C 253.833,115.5 254.167,115.5 254.5,115.5C 256.531,115.972 258.198,116.972 259.5,118.5C 257.389,119.742 255.389,119.742 253.5,118.5C 253.047,117.542 252.381,116.708 251.5,116C 252.094,115.536 252.761,115.369 253.5,115.5 Z"/></g>
<g><path style="opacity:1" fill="#2a96ef" d="M 290.5,116.5 C 291.833,116.5 293.167,116.5 294.5,116.5C 293.9,117.9 292.9,118.9 291.5,119.5C 290.833,119.5 290.5,119.167 290.5,118.5C 290.5,117.833 290.5,117.167 290.5,116.5 Z"/></g>
<g><path style="opacity:1" fill="#339be9" d="M 296.5,115.5 C 296.5,114.833 296.833,114.5 297.5,114.5C 298.167,114.5 298.833,114.5 299.5,114.5C 300.573,115.251 300.74,116.251 300,117.5C 298.687,116.713 297.52,117.046 296.5,118.5C 295.081,119.451 293.415,119.784 291.5,119.5C 292.9,118.9 293.9,117.9 294.5,116.5C 296.401,116.754 297.067,116.42 296.5,115.5 Z"/></g>
<g><path style="opacity:1" fill="#3997e1" d="M 329.5,115.5 C 329.065,118.157 328.065,120.491 326.5,122.5C 326.5,120.167 326.5,117.833 326.5,115.5C 327.5,115.5 328.5,115.5 329.5,115.5 Z"/></g>
<g><path style="opacity:1" fill="#49adf3" d="M 145.5,115.5 C 146.833,115.5 147.5,116.167 147.5,117.5C 147.833,118.167 148.167,118.833 148.5,119.5C 148.158,120.338 147.492,120.672 146.5,120.5C 145.89,119.609 145.557,118.609 145.5,117.5C 145.5,116.833 145.5,116.167 145.5,115.5 Z"/></g>
<g><path style="opacity:1" fill="#39a6f4" d="M 153.5,116.5 C 153.5,117.167 153.5,117.833 153.5,118.5C 153.5,119.167 153.167,119.5 152.5,119.5C 151.167,119.5 149.833,119.5 148.5,119.5C 148.167,118.833 147.833,118.167 147.5,117.5C 148.167,117.5 148.833,117.5 149.5,117.5C 149.833,117.5 150.167,117.5 150.5,117.5C 151.609,117.443 152.609,117.11 153.5,116.5 Z"/></g>
<g><path style="opacity:0.361" fill="#469bd4" d="M 235.5,117.5 C 232.627,119.482 229.627,119.815 226.5,118.5C 229.518,118.296 232.518,117.963 235.5,117.5 Z"/></g>
<g><path style="opacity:0.569" fill="#68acdc" d="M 135.5,115.5 C 135.5,116.167 135.5,116.833 135.5,117.5C 135.167,118.167 134.833,118.833 134.5,119.5C 133.833,119.5 133.5,119.833 133.5,120.5C 132.833,120.5 132.167,120.5 131.5,120.5C 131.04,117.905 132.374,116.238 135.5,115.5 Z"/></g>
<g><path style="opacity:0.188" fill="#4a97e1" d="M 135.5,117.5 C 136.5,117.5 137.5,117.5 138.5,117.5C 138.5,117.833 138.5,118.167 138.5,118.5C 137.833,118.5 137.5,118.833 137.5,119.5C 136.348,120.625 135.348,120.625 134.5,119.5C 134.833,118.833 135.167,118.167 135.5,117.5 Z"/></g>
<g><path style="opacity:0.949" fill="#61b5f1" d="M 142.5,117.5 C 143.5,118.833 144.5,118.833 145.5,117.5C 145.557,118.609 145.89,119.609 146.5,120.5C 145.833,120.5 145.5,120.833 145.5,121.5C 145.167,121.5 144.833,121.5 144.5,121.5C 143.194,120.533 142.527,119.199 142.5,117.5 Z"/></g>
<g><path style="opacity:0.078" fill="#5091b6" d="M 153.5,118.5 C 154.833,118.5 156.167,118.5 157.5,118.5C 157.833,118.5 158.167,118.5 158.5,118.5C 156.786,119.738 154.786,120.405 152.5,120.5C 152.5,120.167 152.5,119.833 152.5,119.5C 153.167,119.5 153.5,119.167 153.5,118.5 Z"/></g>
<g><path style="opacity:1" fill="#339cf4" d="M 163.5,117.5 C 164.11,118.391 164.443,119.391 164.5,120.5C 163.508,120.328 162.842,120.662 162.5,121.5C 161.833,121.5 161.5,121.167 161.5,120.5C 161.5,119.833 161.5,119.167 161.5,118.5C 162.167,118.167 162.833,117.833 163.5,117.5 Z"/></g>
<g><path style="opacity:0.988" fill="#319eec" d="M 170.5,116.5 C 170.5,116.167 170.5,115.833 170.5,115.5C 171.609,115.557 172.609,115.89 173.5,116.5C 173.5,117.833 173.5,119.167 173.5,120.5C 172.833,120.5 172.167,120.5 171.5,120.5C 172.954,118.737 172.62,117.403 170.5,116.5 Z"/></g>
<g><path style="opacity:0.82" fill="#5fabf6" d="M 134.5,119.5 C 135.348,120.625 136.348,120.625 137.5,119.5C 137.5,120.5 137.5,121.5 137.5,122.5C 135.517,122.843 134.183,122.176 133.5,120.5C 133.5,119.833 133.833,119.5 134.5,119.5 Z"/></g>
<g><path style="opacity:0.278" fill="#67b3f8" d="M 141.5,116.5 C 141.833,116.5 142.167,116.5 142.5,116.5C 142.5,116.833 142.5,117.167 142.5,117.5C 142.527,119.199 143.194,120.533 144.5,121.5C 143.292,122.234 141.959,122.567 140.5,122.5C 140.833,121.167 141.167,119.833 141.5,118.5C 141.5,117.833 141.5,117.167 141.5,116.5 Z"/></g>
<g><path style="opacity:0.725" fill="#478ec7" d="M 148.5,119.5 C 149.833,119.5 151.167,119.5 152.5,119.5C 152.5,119.833 152.5,120.167 152.5,120.5C 151.18,121.942 149.514,122.608 147.5,122.5C 147.158,121.662 146.492,121.328 145.5,121.5C 145.5,120.833 145.833,120.5 146.5,120.5C 147.492,120.672 148.158,120.338 148.5,119.5 Z"/></g>
<g><path style="opacity:0.494" fill="#4a99d4" d="M 171.5,120.5 C 172.167,120.5 172.833,120.5 173.5,120.5C 171.26,122.107 169.594,124.273 168.5,127C 167.184,127.528 166.517,127.028 166.5,125.5C 168.144,125.19 169.144,124.19 169.5,122.5C 169.833,121.5 170.5,120.833 171.5,120.5 Z"/></g>
<g><path style="opacity:0.227" fill="#67afeb" d="M 138.5,118.5 C 138.369,119.239 138.536,119.906 139,120.5C 139.708,119.619 140.542,118.953 141.5,118.5C 141.167,119.833 140.833,121.167 140.5,122.5C 139.5,122.5 138.5,122.5 137.5,122.5C 137.5,121.5 137.5,120.5 137.5,119.5C 137.5,118.833 137.833,118.5 138.5,118.5 Z"/></g>
<g><path style="opacity:1" fill="#399df0" d="M 162.5,121.5 C 162.842,120.662 163.508,120.328 164.5,120.5C 165.167,120.833 165.833,121.167 166.5,121.5C 167.391,122.11 168.391,122.443 169.5,122.5C 169.144,124.19 168.144,125.19 166.5,125.5C 165.607,123.703 164.274,122.37 162.5,121.5 Z"/></g>
<g><path style="opacity:0.137" fill="#629dcd" d="M 131.5,120.5 C 132.167,120.5 132.833,120.5 133.5,120.5C 134.183,122.176 135.517,122.843 137.5,122.5C 138.5,122.5 139.5,122.5 140.5,122.5C 141.959,122.567 143.292,122.234 144.5,121.5C 144.833,121.5 145.167,121.5 145.5,121.5C 146.492,121.328 147.158,121.662 147.5,122.5C 143.825,123.057 140.159,123.724 136.5,124.5C 133.775,124.324 132.108,122.99 131.5,120.5 Z"/></g>
<g><path style="opacity:1" fill="#3299e9" d="M 324.5,120.5 C 324.5,121.833 325.167,122.5 326.5,122.5C 326.672,123.492 326.338,124.158 325.5,124.5C 323.952,124.179 323.285,123.179 323.5,121.5C 323.5,120.833 323.833,120.5 324.5,120.5 Z"/></g>
<g><path style="opacity:1" fill="#3a97d9" d="M 323.5,121.5 C 323.285,123.179 323.952,124.179 325.5,124.5C 322.111,127.802 320.111,127.136 319.5,122.5C 320.959,122.567 322.292,122.234 323.5,121.5 Z"/></g>
</svg>
